<svg width="115" height="119" viewBox="0 0 115 119" fill="none" xmlns="http://www.w3.org/2000/svg">
<g filter="url(#filter0_d_2080_2471)">
<ellipse cx="57.1669" cy="40.2892" rx="16.9443" ry="19.0413" fill="white"/>
<path d="M73.3612 40.2892C73.3612 50.4759 66.0309 58.5806 57.1669 58.5806C48.303 58.5806 40.9727 50.4759 40.9727 40.2892C40.9727 30.1026 48.303 21.9979 57.1669 21.9979C66.0309 21.9979 73.3612 30.1026 73.3612 40.2892Z" stroke="#ECEFF9" stroke-width="1.5"/>
</g>
<path fill-rule="evenodd" clip-rule="evenodd" d="M57.1671 34.6473C57.5137 34.6473 57.7947 34.9631 57.7947 35.3526V45.2258C57.7947 45.6153 57.5137 45.9311 57.1671 45.9311C56.8205 45.9311 56.5396 45.6153 56.5396 45.2258V35.3526C56.5396 34.9631 56.8205 34.6473 57.1671 34.6473Z" fill="#3F4765"/>
<path fill-rule="evenodd" clip-rule="evenodd" d="M52.1465 40.2892C52.1465 39.8997 52.4275 39.584 52.7741 39.584H61.56C61.9066 39.584 62.1875 39.8997 62.1875 40.2892C62.1875 40.6787 61.9066 40.9945 61.56 40.9945H52.7741C52.4275 40.9945 52.1465 40.6787 52.1465 40.2892Z" fill="#3F4765"/>
<defs>
<filter id="filter0_d_2080_2471" x="0.222656" y="0.247925" width="113.889" height="118.083" filterUnits="userSpaceOnUse" color-interpolation-filters="sRGB">
<feFlood flood-opacity="0" result="BackgroundImageFix"/>
<feColorMatrix in="SourceAlpha" type="matrix" values="0 0 0 0 0 0 0 0 0 0 0 0 0 0 0 0 0 0 127 0" result="hardAlpha"/>
<feOffset dy="19"/>
<feGaussianBlur stdDeviation="20"/>
<feComposite in2="hardAlpha" operator="out"/>
<feColorMatrix type="matrix" values="0 0 0 0 0.192969 0 0 0 0 0.310781 0 0 0 0 0.4875 0 0 0 0.08 0"/>
<feBlend mode="normal" in2="BackgroundImageFix" result="effect1_dropShadow_2080_2471"/>
<feBlend mode="normal" in="SourceGraphic" in2="effect1_dropShadow_2080_2471" result="shape"/>
</filter>
</defs>
</svg>
