<svg width="118" height="119" viewBox="0 0 118 119" fill="none" xmlns="http://www.w3.org/2000/svg">
<g filter="url(#filter0_d_2080_2620)">
<ellipse cx="58.783" cy="40.2892" rx="18.739" ry="19.0413" fill="white"/>
<path d="M76.772 40.2892C76.772 50.4026 68.7067 58.5806 58.783 58.5806C48.8592 58.5806 40.7939 50.4026 40.7939 40.2892C40.7939 30.1759 48.8592 21.9979 58.783 21.9979C68.7067 21.9979 76.772 30.1759 76.772 40.2892Z" stroke="#ECEFF9" stroke-width="1.5"/>
</g>
<path fill-rule="evenodd" clip-rule="evenodd" d="M58.783 34.6473C59.1663 34.6473 59.4771 34.9631 59.4771 35.3526V45.2258C59.4771 45.6153 59.1663 45.9311 58.783 45.9311C58.3997 45.9311 58.089 45.6153 58.089 45.2258V35.3526C58.089 34.9631 58.3997 34.6473 58.783 34.6473Z" fill="#3F4765"/>
<path fill-rule="evenodd" clip-rule="evenodd" d="M53.2307 40.2892C53.2307 39.8997 53.5414 39.584 53.9248 39.584H63.6413C64.0246 39.584 64.3353 39.8997 64.3353 40.2892C64.3353 40.6787 64.0246 40.9945 63.6413 40.9945H53.9248C53.5414 40.9945 53.2307 40.6787 53.2307 40.2892Z" fill="#3F4765"/>
<defs>
<filter id="filter0_d_2080_2620" x="0.0439453" y="0.247925" width="117.478" height="118.083" filterUnits="userSpaceOnUse" color-interpolation-filters="sRGB">
<feFlood flood-opacity="0" result="BackgroundImageFix"/>
<feColorMatrix in="SourceAlpha" type="matrix" values="0 0 0 0 0 0 0 0 0 0 0 0 0 0 0 0 0 0 127 0" result="hardAlpha"/>
<feOffset dy="19"/>
<feGaussianBlur stdDeviation="20"/>
<feComposite in2="hardAlpha" operator="out"/>
<feColorMatrix type="matrix" values="0 0 0 0 0.192969 0 0 0 0 0.310781 0 0 0 0 0.4875 0 0 0 0.08 0"/>
<feBlend mode="normal" in2="BackgroundImageFix" result="effect1_dropShadow_2080_2620"/>
<feBlend mode="normal" in="SourceGraphic" in2="effect1_dropShadow_2080_2620" result="shape"/>
</filter>
</defs>
</svg>
