<svg width="118" height="119" viewBox="0 0 118 119" fill="none" xmlns="http://www.w3.org/2000/svg">
<g filter="url(#filter0_d_2080_515)">
<ellipse cx="58.8915" cy="40.2892" rx="18.3695" ry="19.0413" fill="white"/>
<path d="M76.511 40.2892C76.511 50.4169 68.5973 58.5806 58.8915 58.5806C49.1857 58.5806 41.272 50.4169 41.272 40.2892C41.272 30.1616 49.1857 21.9979 58.8915 21.9979C68.5973 21.9979 76.511 30.1616 76.511 40.2892Z" stroke="#ECEFF9" stroke-width="1.5"/>
</g>
<path fill-rule="evenodd" clip-rule="evenodd" d="M58.8915 34.6473C59.2673 34.6473 59.5719 34.9631 59.5719 35.3526V45.2258C59.5719 45.6153 59.2673 45.9311 58.8915 45.9311C58.5158 45.9311 58.2112 45.6153 58.2112 45.2258V35.3526C58.2112 34.9631 58.5158 34.6473 58.8915 34.6473Z" fill="#3F4765"/>
<path fill-rule="evenodd" clip-rule="evenodd" d="M53.4487 40.2892C53.4487 39.8997 53.7533 39.584 54.1291 39.584H63.654C64.0298 39.584 64.3344 39.8997 64.3344 40.2892C64.3344 40.6787 64.0298 40.9945 63.654 40.9945H54.1291C53.7533 40.9945 53.4487 40.6787 53.4487 40.2892Z" fill="#3F4765"/>
<defs>
<filter id="filter0_d_2080_515" x="0.521973" y="0.247925" width="116.739" height="118.083" filterUnits="userSpaceOnUse" color-interpolation-filters="sRGB">
<feFlood flood-opacity="0" result="BackgroundImageFix"/>
<feColorMatrix in="SourceAlpha" type="matrix" values="0 0 0 0 0 0 0 0 0 0 0 0 0 0 0 0 0 0 127 0" result="hardAlpha"/>
<feOffset dy="19"/>
<feGaussianBlur stdDeviation="20"/>
<feComposite in2="hardAlpha" operator="out"/>
<feColorMatrix type="matrix" values="0 0 0 0 0.192969 0 0 0 0 0.310781 0 0 0 0 0.4875 0 0 0 0.08 0"/>
<feBlend mode="normal" in2="BackgroundImageFix" result="effect1_dropShadow_2080_515"/>
<feBlend mode="normal" in="SourceGraphic" in2="effect1_dropShadow_2080_515" result="shape"/>
</filter>
</defs>
</svg>
