<svg width="44" height="45" viewBox="0 0 44 45" fill="none" xmlns="http://www.w3.org/2000/svg">
<path d="M23.6558 36.3629C23.6558 39.3363 27.2718 40.8018 29.3419 38.6673L41.1076 26.5354C42.3638 25.2401 43.0663 23.5066 43.0663 21.7022V8.16745C43.0663 5.19404 39.4503 3.72857 37.3802 5.86306L25.6145 17.995C24.3583 19.2903 23.6558 21.0238 23.6558 22.8282V36.3629Z" fill="#0C7FDA"/>
<path d="M11.6263 36.8325C11.6263 39.806 15.2424 41.2714 17.3124 39.1369L28.7967 27.2953C30.2334 25.8138 31.0369 23.8312 31.0369 21.7675V8.63711C31.0369 5.6637 27.4209 4.19824 25.3508 6.33273L13.5851 18.4646C12.3289 19.7599 11.6263 21.4934 11.6263 23.2978V36.8325Z" fill="#2196F3"/>
<path d="M0 36.3629C0 39.3363 3.61605 40.8018 5.68611 38.6673L17.4518 26.5354C18.708 25.2401 19.4106 23.5066 19.4106 21.7022V8.16745C19.4106 5.19404 15.7945 3.72857 13.7245 5.86306L1.95873 17.995C0.702531 19.2903 0 21.0238 0 22.8282V36.3629Z" fill="#6EBBF7"/>
</svg>
