<svg width="24" height="26" viewBox="0 0 24 26" fill="none" xmlns="http://www.w3.org/2000/svg">
<path fill-rule="evenodd" clip-rule="evenodd" d="M4.50935 6.28099C3.92833 6.28099 3.50382 6.78292 3.50382 7.33885V18.4463C3.50382 19.0022 3.92833 19.5041 4.50935 19.5041H19.9132C20.4943 19.5041 20.9188 19.0022 20.9188 18.4463V7.33885C20.9188 6.78292 20.4943 6.28099 19.9132 6.28099H4.50935ZM2.0918 7.33885C2.0918 5.84995 3.19985 4.69421 4.50935 4.69421H19.9132C21.2227 4.69421 22.3308 5.84995 22.3308 7.33885V18.4463C22.3308 19.9352 21.2227 21.0909 19.9132 21.0909H4.50935C3.19985 21.0909 2.0918 19.9352 2.0918 18.4463V7.33885Z" fill="#FFEFDC"/>
<path fill-rule="evenodd" clip-rule="evenodd" d="M2.0918 10.7769C2.0918 10.3387 2.40789 9.98352 2.79781 9.98352H21.6248C22.0147 9.98352 22.3308 10.3387 22.3308 10.7769C22.3308 11.2151 22.0147 11.5703 21.6248 11.5703H2.79781C2.40789 11.5703 2.0918 11.2151 2.0918 10.7769Z" fill="#FFEFDC"/>
</svg>
