<svg width="25" height="27" viewBox="0 0 25 27" fill="none" xmlns="http://www.w3.org/2000/svg">
<path fill-rule="evenodd" clip-rule="evenodd" d="M12.4545 21.3846C8.30422 21.3846 4.93973 17.897 4.93973 13.5949C4.93973 9.29285 8.30422 5.80531 12.4545 5.80531C16.6048 5.80531 19.9693 9.29285 19.9693 13.5949C19.9693 17.897 16.6048 21.3846 12.4545 21.3846ZM3.26978 13.5949C3.26978 18.8531 7.38193 23.1156 12.4545 23.1156C17.5271 23.1156 21.6393 18.8531 21.6393 13.5949C21.6393 8.33682 17.5271 4.07428 12.4545 4.07428C7.38193 4.07428 3.26978 8.33682 3.26978 13.5949Z" fill="white"/>
<path d="M11.8606 17.6652C11.8728 17.6779 11.8853 17.6903 11.8982 17.7023C11.9666 17.7658 12.0428 17.8156 12.1233 17.8517C12.2249 17.8972 12.3369 17.9225 12.4546 17.9225L12.4572 17.9225C12.5659 17.9221 12.6697 17.9003 12.7649 17.8608C12.8669 17.8185 12.9625 17.7546 13.0451 17.669L16.385 14.2069C16.7111 13.8689 16.7111 13.3209 16.385 12.9829C16.0589 12.6449 15.5302 12.6449 15.2042 12.9829L13.2896 14.9675V10.1329C13.2896 9.65484 12.9158 9.26734 12.4546 9.26734C11.9935 9.26734 11.6197 9.65484 11.6197 10.1329V14.9674L9.70518 12.9829C9.3791 12.6449 8.85042 12.6449 8.52434 12.9829C8.19827 13.3209 8.19827 13.8689 8.52434 14.2069L11.8606 17.6652Z" fill="white"/>
</svg>
