<svg width="24" height="27" viewBox="0 0 24 27" fill="none" xmlns="http://www.w3.org/2000/svg">
<path fill-rule="evenodd" clip-rule="evenodd" d="M12 21.3846C7.93318 21.3846 4.63636 17.897 4.63636 13.5949C4.63636 9.29285 7.93318 5.80531 12 5.80531C16.0668 5.80531 19.3636 9.29285 19.3636 13.5949C19.3636 17.897 16.0668 21.3846 12 21.3846ZM3 13.5949C3 18.8531 7.02944 23.1156 12 23.1156C16.9706 23.1156 21 18.8531 21 13.5949C21 8.33682 16.9706 4.07428 12 4.07428C7.02944 4.07428 3 8.33682 3 13.5949Z" fill="white"/>
<path d="M11.4179 17.6651C11.4298 17.6779 11.442 17.6902 11.4546 17.7022C11.5217 17.7658 11.5964 17.8156 11.6753 17.8516C11.7748 17.8972 11.8846 17.9224 11.9999 17.9224L12.0024 17.9224C12.1089 17.9221 12.2107 17.9002 12.3039 17.8607C12.4039 17.8185 12.4976 17.7545 12.5785 17.6689L15.8512 14.2069C16.1708 13.8689 16.1708 13.3208 15.8512 12.9828C15.5317 12.6448 15.0137 12.6448 14.6942 12.9828L12.8181 14.9674V10.1328C12.8181 9.65478 12.4518 9.26728 11.9999 9.26728C11.5481 9.26728 11.1818 9.65478 11.1818 10.1328V14.9673L9.30578 12.9828C8.98626 12.6448 8.46822 12.6448 8.1487 12.9828C7.82918 13.3208 7.82918 13.8689 8.1487 14.2069L11.4179 17.6651Z" fill="white"/>
</svg>
