<svg width="24" height="27" viewBox="0 0 24 27" fill="none" xmlns="http://www.w3.org/2000/svg">
<path fill-rule="evenodd" clip-rule="evenodd" d="M12.2729 21.3846C8.44462 21.3846 5.34117 17.897 5.34117 13.5949C5.34117 9.29285 8.44462 5.80531 12.2729 5.80531C16.1012 5.80531 19.2047 9.29285 19.2047 13.5949C19.2047 17.897 16.1012 21.3846 12.2729 21.3846ZM3.80078 13.5949C3.80078 18.8531 7.59389 23.1156 12.2729 23.1156C16.952 23.1156 20.7451 18.8531 20.7451 13.5949C20.7451 8.33682 16.952 4.07428 12.2729 4.07428C7.59389 4.07428 3.80078 8.33682 3.80078 13.5949Z" fill="white"/>
<path d="M11.7249 17.6652C11.7361 17.6779 11.7476 17.6903 11.7595 17.7023C11.8227 17.7658 11.8929 17.8156 11.9672 17.8517C12.0609 17.8972 12.1642 17.9225 12.2728 17.9225L12.2752 17.9225C12.3754 17.9221 12.4712 17.9003 12.559 17.8608C12.6531 17.8185 12.7413 17.7546 12.8175 17.669L15.8982 14.2069C16.199 13.8689 16.199 13.3209 15.8982 12.9829C15.5975 12.6449 15.1098 12.6449 14.809 12.9829L13.043 14.9675V10.1329C13.043 9.65484 12.6982 9.26734 12.2728 9.26734C11.8475 9.26734 11.5026 9.65484 11.5026 10.1329V14.9674L9.73668 12.9829C9.4359 12.6449 8.94824 12.6449 8.64746 12.9829C8.34668 13.3209 8.34668 13.8689 8.64746 14.2069L11.7249 17.6652Z" fill="white"/>
</svg>
