<svg width="26" height="26" viewBox="0 0 26 26" fill="none" xmlns="http://www.w3.org/2000/svg">
<path fill-rule="evenodd" clip-rule="evenodd" d="M4.77642 6.28099C4.14653 6.28099 3.68631 6.78292 3.68631 7.33885V18.4463C3.68631 19.0022 4.14653 19.5041 4.77642 19.5041H21.476C22.1059 19.5041 22.5661 19.0022 22.5661 18.4463V7.33885C22.5661 6.78292 22.1059 6.28099 21.476 6.28099H4.77642ZM2.15552 7.33885C2.15552 5.84995 3.35677 4.69421 4.77642 4.69421H21.476C22.8956 4.69421 24.0969 5.84995 24.0969 7.33885V18.4463C24.0969 19.9352 22.8956 21.0909 21.476 21.0909H4.77642C3.35677 21.0909 2.15552 19.9352 2.15552 18.4463V7.33885Z" fill="#FFEFDC"/>
<path fill-rule="evenodd" clip-rule="evenodd" d="M2.15552 10.7769C2.15552 10.3387 2.4982 9.98352 2.92091 9.98352H23.3315C23.7542 9.98352 24.0969 10.3387 24.0969 10.7769C24.0969 11.2151 23.7542 11.5703 23.3315 11.5703H2.92091C2.4982 11.5703 2.15552 11.2151 2.15552 10.7769Z" fill="#FFEFDC"/>
</svg>
