<svg width="24" height="27" viewBox="0 0 24 27" fill="none" xmlns="http://www.w3.org/2000/svg">
<path fill-rule="evenodd" clip-rule="evenodd" d="M12.1294 5.80537C8.30107 5.80537 5.19762 9.29291 5.19762 13.595C5.19762 17.8971 8.30107 21.3846 12.1294 21.3846C15.9577 21.3846 19.0611 17.8971 19.0611 13.595C19.0611 9.29291 15.9577 5.80537 12.1294 5.80537ZM3.65723 13.595C3.65723 8.33689 7.45033 4.07434 12.1294 4.07434C16.8084 4.07434 20.6015 8.33689 20.6015 13.595C20.6015 18.8531 16.8084 23.1157 12.1294 23.1157C7.45033 23.1157 3.65723 18.8531 3.65723 13.595Z" fill="#007F5F"/>
<path d="M11.5813 9.52474C11.5925 9.51199 11.6041 9.49964 11.616 9.48769C11.6791 9.42412 11.7494 9.37431 11.8237 9.33827C11.9173 9.29271 12.0207 9.26746 12.1293 9.26746L12.1316 9.26746C12.2319 9.26779 12.3276 9.28966 12.4154 9.32915C12.5095 9.3714 12.5977 9.43533 12.6739 9.52096L15.7547 12.983C16.0555 13.321 16.0555 13.869 15.7547 14.207C15.4539 14.545 14.9662 14.545 14.6655 14.207L12.8995 12.2225V17.0571C12.8995 17.5351 12.5546 17.9226 12.1293 17.9226C11.7039 17.9226 11.3591 17.5351 11.3591 17.0571V12.2225L9.59312 14.207C9.29234 14.545 8.80468 14.545 8.50391 14.207C8.20313 13.869 8.20313 13.321 8.50391 12.983L11.5813 9.52474Z" fill="#007F5F"/>
</svg>
