<svg width="16" height="18" viewBox="0 0 16 18" fill="none" xmlns="http://www.w3.org/2000/svg">
<path d="M11.7382 5.97417C11.5602 4.17689 10.7599 3.6004 9.05272 3.46283L9.01552 1.7522L7.69479 1.77908L7.73075 3.42412C7.38396 3.43117 7.02923 3.44567 6.67696 3.46136L6.6393 1.8007L5.31982 1.8272L5.35827 3.53647L3.18506 3.59468L3.20995 5.21844C3.20995 5.21844 3.69579 5.17745 3.6799 5.1985C4.21473 5.18801 4.39451 5.54176 4.44965 5.84934L4.55313 12.6906C4.53257 12.8848 4.4383 13.1956 4.06455 13.2032C4.0818 13.2201 3.59338 13.221 3.59338 13.221L3.35904 15.0441L5.5316 14.9997L5.57041 16.5621L6.88934 16.5358L6.85171 15.0003C7.21465 15.0014 7.56444 14.9979 7.90636 14.9907L7.94347 16.5146L9.26397 16.4878L9.22622 14.93C11.444 14.7385 12.4294 14.0634 12.5855 11.6613C12.712 9.72585 11.9097 8.8793 10.6441 8.55597C11.4027 8.0909 11.8693 7.29081 11.7374 5.9754L11.7382 5.97417ZM10.5306 11.4128C10.5589 13.3005 7.7493 13.1424 6.85393 13.1611L6.80359 9.81454C7.69869 9.79675 10.4998 9.44458 10.5306 11.4128ZM9.84609 6.70337C9.87187 8.42136 7.52732 8.26773 6.78146 8.28263L6.73455 5.24692C7.4807 5.23221 9.81921 4.9121 9.84609 6.70337Z" fill="white"/>
</svg>
