<svg width="26" height="27" viewBox="0 0 26 27" fill="none" xmlns="http://www.w3.org/2000/svg">
<path fill-rule="evenodd" clip-rule="evenodd" d="M12.9091 21.3846C8.67526 21.3846 5.2431 17.897 5.2431 13.5949C5.2431 9.29285 8.67526 5.80531 12.9091 5.80531C17.1428 5.80531 20.575 9.29285 20.575 13.5949C20.575 17.897 17.1428 21.3846 12.9091 21.3846ZM3.53955 13.5949C3.53955 18.8531 7.73442 23.1156 12.9091 23.1156C18.0837 23.1156 22.2786 18.8531 22.2786 13.5949C22.2786 8.33682 18.0837 4.07428 12.9091 4.07428C7.73442 4.07428 3.53955 8.33682 3.53955 13.5949Z" fill="white"/>
<path d="M12.3031 17.6652C12.3155 17.6779 12.3283 17.6903 12.3414 17.7023C12.4113 17.7658 12.489 17.8156 12.5711 17.8517C12.6747 17.8972 12.789 17.9225 12.9091 17.9225L12.9117 17.9225C13.0226 17.9221 13.1285 17.9003 13.2256 17.8608C13.3296 17.8185 13.4272 17.7546 13.5114 17.669L16.9185 14.2069C17.2512 13.8689 17.2512 13.3209 16.9185 12.9829C16.5859 12.6449 16.0466 12.6449 15.7139 12.9829L13.7609 14.9675V10.1329C13.7609 9.65484 13.3795 9.26734 12.9091 9.26734C12.4387 9.26734 12.0573 9.65484 12.0573 10.1329V14.9674L10.1043 12.9829C9.7717 12.6449 9.23238 12.6449 8.89975 12.9829C8.56711 13.3209 8.56711 13.8689 8.89975 14.2069L12.3031 17.6652Z" fill="white"/>
</svg>
