<svg width="26" height="26" viewBox="0 0 26 26" fill="none" xmlns="http://www.w3.org/2000/svg">
<path fill-rule="evenodd" clip-rule="evenodd" d="M4.73441 6.28099C4.09185 6.28099 3.62237 6.78292 3.62237 7.33885V18.4463C3.62237 19.0022 4.09185 19.5041 4.73441 19.5041H21.7699C22.4124 19.5041 22.8819 19.0022 22.8819 18.4463V7.33885C22.8819 6.78292 22.4124 6.28099 21.7699 6.28099H4.73441ZM2.06079 7.33885C2.06079 5.84995 3.28621 4.69421 4.73441 4.69421H21.7699C23.2181 4.69421 24.4435 5.84995 24.4435 7.33885V18.4463C24.4435 19.9352 23.2181 21.0909 21.7699 21.0909H4.73441C3.28621 21.0909 2.06079 19.9352 2.06079 18.4463V7.33885Z" fill="#FFEFDC"/>
<path fill-rule="evenodd" clip-rule="evenodd" d="M2.06079 10.7769C2.06079 10.3387 2.41036 9.98352 2.84158 9.98352H23.6627C24.0939 9.98352 24.4435 10.3387 24.4435 10.7769C24.4435 11.2151 24.0939 11.5703 23.6627 11.5703H2.84158C2.41036 11.5703 2.06079 11.2151 2.06079 10.7769Z" fill="#FFEFDC"/>
</svg>
