<svg width="51" height="52" viewBox="0 0 51 52" fill="none" xmlns="http://www.w3.org/2000/svg">
<rect x="0.354858" y="0.553711" width="49.9707" height="50.7769" rx="12" fill="#FF7991" fill-opacity="0.08"/>
<circle cx="24.519" cy="26" r="20" fill="white"/>
<path d="M34.1682 30.6738C34.0888 30.5512 33.9599 30.4694 33.8151 30.4498C31.9111 30.2011 30.5691 28.4559 30.8178 26.5518C30.9935 25.2068 31.9353 24.0868 33.2302 23.6829C33.4932 23.5986 33.6381 23.3171 33.5538 23.0541C33.5406 23.0132 33.5223 22.9741 33.4992 22.9378C32.6254 21.3609 31.0718 20.2763 29.2902 19.9999C28.3925 20.0427 27.5078 20.2322 26.6713 20.5609C26.0705 20.8027 25.4361 20.9507 24.7903 20.9999C24.1445 20.9507 23.5101 20.8027 22.9093 20.5609C22.0728 20.2322 21.1881 20.0427 20.2903 19.9999C18.4234 19.9999 14.7904 22.6468 14.7904 27.4998C14.7904 32.1117 18.1544 37.9997 20.7903 37.9997C21.7961 38.0087 22.7898 37.7798 23.6903 37.3317C24.0295 37.1447 24.4043 37.0315 24.7903 36.9997C25.1763 37.0315 25.5512 37.1447 25.8903 37.3317C26.7909 37.7798 27.7845 38.0087 28.7903 37.9997C30.8803 37.9997 33.2393 34.4117 34.2273 31.0868C34.2686 30.9471 34.247 30.7963 34.1682 30.6738Z" fill="#37474F"/>
<path d="M24.2902 19.9999C27.3264 19.9966 29.7869 17.5362 29.7902 14.5C29.7902 14.2239 29.5664 14 29.2902 14C26.2541 14.0033 23.7936 16.4638 23.7903 19.4999C23.7902 19.7761 24.0141 19.9999 24.2902 19.9999Z" fill="#37474F"/>
</svg>
