<svg width="46" height="52" viewBox="0 0 46 52" fill="none" xmlns="http://www.w3.org/2000/svg">
<rect x="0.0644531" y="0.686035" width="45.1848" height="50.7769" rx="12" fill="#FF8933" fill-opacity="0.08"/>
<circle cx="23.8301" cy="26.0005" r="20" fill="white"/>
<g clip-path="url(#clip0_2080_2400)">
<path d="M24.5801 25.2505H35.8301V14.7505C35.8301 14.3365 35.4941 14.0005 35.0801 14.0005H24.5801V25.2505Z" fill="#4CAF50"/>
<path d="M23.0801 25.2505V14.0005H12.5801C12.1661 14.0005 11.8301 14.3365 11.8301 14.7505V25.2505H23.0801Z" fill="#F44336"/>
<path d="M23.0801 26.7505H11.8301V37.2505C11.8301 37.6645 12.1661 38.0005 12.5801 38.0005H23.0801V26.7505Z" fill="#2196F3"/>
<path d="M24.5801 26.7505V38.0005H35.0801C35.4941 38.0005 35.8301 37.6645 35.8301 37.2505V26.7505H24.5801Z" fill="#FFC107"/>
</g>
<defs>
<clipPath id="clip0_2080_2400">
<rect width="24" height="24" fill="white" transform="translate(11.8301 14.0005)"/>
</clipPath>
</defs>
</svg>
