<svg width="50" height="52" viewBox="0 0 50 52" fill="none" xmlns="http://www.w3.org/2000/svg">
<rect x="0.67749" y="0.686035" width="48.9853" height="50.7769" rx="12" fill="#FF8933" fill-opacity="0.08"/>
<circle cx="24.7595" cy="26.0005" r="20" fill="white"/>
<g clip-path="url(#clip0_2080_444)">
<path d="M25.5095 25.2505H36.7595V14.7505C36.7595 14.3365 36.4235 14.0005 36.0095 14.0005H25.5095V25.2505Z" fill="#4CAF50"/>
<path d="M24.0095 25.2505V14.0005H13.5095C13.0955 14.0005 12.7595 14.3365 12.7595 14.7505V25.2505H24.0095Z" fill="#F44336"/>
<path d="M24.0095 26.7505H12.7595V37.2505C12.7595 37.6645 13.0955 38.0005 13.5095 38.0005H24.0095V26.7505Z" fill="#2196F3"/>
<path d="M25.5095 26.7505V38.0005H36.0095C36.4235 38.0005 36.7595 37.6645 36.7595 37.2505V26.7505H25.5095Z" fill="#FFC107"/>
</g>
<defs>
<clipPath id="clip0_2080_444">
<rect width="24" height="24" fill="white" transform="translate(12.7595 14.0005)"/>
</clipPath>
</defs>
</svg>
