<svg width="48" height="52" viewBox="0 0 48 52" fill="none" xmlns="http://www.w3.org/2000/svg">
<rect y="0.553711" width="48" height="50.7769" rx="12" fill="#FF7991" fill-opacity="0.08"/>
<circle cx="24" cy="26" r="20" fill="white"/>
<path d="M33.6491 30.6738C33.5698 30.5511 33.4408 30.4693 33.2961 30.4497C31.392 30.201 30.05 28.4558 30.2988 26.5518C30.4744 25.2067 31.4162 24.0867 32.7112 23.6828C32.9741 23.5985 33.119 23.317 33.0347 23.0541C33.0216 23.0131 33.0033 22.9741 32.9802 22.9378C32.1064 21.3608 30.5527 20.2763 28.7712 19.9998C27.8735 20.0427 26.9888 20.2322 26.1522 20.5608C25.5514 20.8026 24.917 20.9507 24.2712 20.9998C23.6255 20.9507 22.9911 20.8026 22.3903 20.5608C21.5537 20.2322 20.669 20.0427 19.7713 19.9998C17.9043 19.9998 14.2714 22.6468 14.2714 27.4997C14.2714 32.1117 17.6353 37.9996 20.2713 37.9996C21.2771 38.0086 22.2708 37.7798 23.1713 37.3316C23.5104 37.1446 23.8853 37.0314 24.2713 36.9996C24.6573 37.0314 25.0322 37.1446 25.3713 37.3316C26.2718 37.7798 27.2655 38.0086 28.2713 37.9996C30.3613 37.9996 32.7202 34.4117 33.7082 31.0867C33.7496 30.9471 33.728 30.7962 33.6491 30.6738Z" fill="#37474F"/>
<path d="M23.7712 19.9999C26.8074 19.9966 29.2679 17.5362 29.2711 14.5C29.2711 14.2239 29.0473 14 28.7712 14C25.735 14.0033 23.2745 16.4638 23.2712 19.4999C23.2712 19.7761 23.4951 19.9999 23.7712 19.9999Z" fill="#37474F"/>
</svg>
