<svg width="50" height="52" viewBox="0 0 50 52" fill="none" xmlns="http://www.w3.org/2000/svg">
<rect x="0.67749" y="0.553711" width="48.9853" height="50.7769" rx="12" fill="#FF7991" fill-opacity="0.08"/>
<circle cx="24.7595" cy="26" r="20" fill="white"/>
<path d="M34.4085 30.6738C34.3292 30.5512 34.2002 30.4694 34.0555 30.4498C32.1514 30.2011 30.8094 28.4559 31.0582 26.5518C31.2338 25.2068 32.1756 24.0868 33.4706 23.6829C33.7335 23.5986 33.8784 23.3171 33.7941 23.0541C33.781 23.0132 33.7627 22.9741 33.7396 22.9378C32.8658 21.3609 31.3121 20.2763 29.5306 19.9999C28.6329 20.0427 27.7482 20.2322 26.9116 20.5609C26.3108 20.8027 25.6764 20.9507 25.0306 20.9999C24.3849 20.9507 23.7505 20.8027 23.1497 20.5609C22.3131 20.2322 21.4284 20.0427 20.5307 19.9999C18.6637 19.9999 15.0308 22.6468 15.0308 27.4998C15.0308 32.1117 18.3947 37.9997 21.0307 37.9997C22.0365 38.0087 23.0302 37.7798 23.9307 37.3317C24.2698 37.1447 24.6447 37.0315 25.0307 36.9997C25.4167 37.0315 25.7916 37.1447 26.1307 37.3317C27.0312 37.7798 28.0249 38.0087 29.0307 37.9997C31.1207 37.9997 33.4796 34.4117 34.4676 31.0868C34.509 30.9471 34.4874 30.7963 34.4085 30.6738Z" fill="#37474F"/>
<path d="M24.5305 19.9999C27.5666 19.9966 30.0271 17.5362 30.0304 14.5C30.0304 14.2239 29.8066 14 29.5305 14C26.4943 14.0033 24.0338 16.4638 24.0305 19.4999C24.0305 19.7761 24.2543 19.9999 24.5305 19.9999Z" fill="#37474F"/>
</svg>
