<svg width="46" height="52" viewBox="0 0 46 52" fill="none" xmlns="http://www.w3.org/2000/svg">
<rect x="0.0644531" y="0.553711" width="45.1848" height="50.7769" rx="12" fill="#FF7991" fill-opacity="0.08"/>
<circle cx="23.8301" cy="26" r="20" fill="white"/>
<path d="M33.4793 30.6738C33.4 30.5512 33.271 30.4694 33.1263 30.4498C31.2222 30.2011 29.8802 28.4559 30.129 26.5518C30.3046 25.2068 31.2464 24.0868 32.5414 23.6829C32.8043 23.5986 32.9492 23.3171 32.8649 23.0541C32.8518 23.0132 32.8335 22.9741 32.8104 22.9378C31.9366 21.3609 30.3829 20.2763 28.6014 19.9999C27.7037 20.0427 26.819 20.2322 25.9824 20.5609C25.3816 20.8027 24.7472 20.9507 24.1014 20.9999C23.4557 20.9507 22.8213 20.8027 22.2205 20.5609C21.3839 20.2322 20.4992 20.0427 19.6015 19.9999C17.7345 19.9999 14.1016 22.6468 14.1016 27.4998C14.1016 32.1117 17.4655 37.9997 20.1015 37.9997C21.1073 38.0087 22.101 37.7798 23.0015 37.3317C23.3406 37.1447 23.7155 37.0315 24.1015 36.9997C24.4875 37.0315 24.8624 37.1447 25.2015 37.3317C26.102 37.7798 27.0957 38.0087 28.1015 37.9997C30.1915 37.9997 32.5504 34.4117 33.5384 31.0868C33.5798 30.9471 33.5582 30.7963 33.4793 30.6738Z" fill="#37474F"/>
<path d="M23.6015 19.9999C26.6377 19.9966 29.0982 17.5362 29.1015 14.5C29.1015 14.2239 28.8776 14 28.6015 14C25.5653 14.0033 23.1048 16.4638 23.1016 19.4999C23.1015 19.7761 23.3254 19.9999 23.6015 19.9999Z" fill="#37474F"/>
</svg>
