<svg width="125" height="166" viewBox="0 0 125 166" fill="none" xmlns="http://www.w3.org/2000/svg">
<mask id="mask0_2080_2478" style="mask-type:alpha" maskUnits="userSpaceOnUse" x="0" y="0" width="125" height="166">
<rect x="0.618652" y="0.256226" width="124.258" height="165.025" rx="12" fill="#60BC63"/>
</mask>
<g mask="url(#mask0_2080_2478)">
<path d="M35.9922 102.591V112.579H34.3447V104.546L31.9043 105.374V104.013L35.7939 102.591H35.9922ZM46.2185 106.768V108.395C46.2185 109.174 46.141 109.84 45.9861 110.391C45.8357 110.938 45.6169 111.382 45.3298 111.724C45.0427 112.066 44.6986 112.317 44.2976 112.476C43.9011 112.636 43.4568 112.715 42.9646 112.715C42.5726 112.715 42.2081 112.665 41.8708 112.565C41.5381 112.465 41.2374 112.307 40.9685 112.093C40.6996 111.879 40.4695 111.603 40.278 111.266C40.0912 110.924 39.9454 110.516 39.8405 110.042C39.7403 109.569 39.6902 109.019 39.6902 108.395V106.768C39.6902 105.984 39.7676 105.323 39.9226 104.786C40.0775 104.243 40.2986 103.804 40.5857 103.466C40.8728 103.125 41.2146 102.876 41.6111 102.721C42.0121 102.566 42.4587 102.489 42.9509 102.489C43.3474 102.489 43.712 102.539 44.0446 102.639C44.3819 102.735 44.6827 102.888 44.947 103.097C45.2159 103.307 45.4437 103.58 45.6306 103.917C45.822 104.25 45.9678 104.653 46.0681 105.127C46.1683 105.597 46.2185 106.144 46.2185 106.768ZM44.571 108.627V106.522C44.571 106.125 44.5482 105.777 44.5027 105.476C44.4571 105.171 44.3887 104.913 44.2976 104.704C44.211 104.489 44.1016 104.316 43.9695 104.184C43.8373 104.047 43.6869 103.949 43.5183 103.89C43.3497 103.826 43.1605 103.794 42.9509 103.794C42.6957 103.794 42.4678 103.845 42.2673 103.945C42.0668 104.041 41.8982 104.195 41.7614 104.41C41.6247 104.624 41.5199 104.906 41.447 105.257C41.3786 105.604 41.3445 106.025 41.3445 106.522V108.627C41.3445 109.028 41.3672 109.382 41.4128 109.687C41.4584 109.992 41.5267 110.254 41.6179 110.473C41.709 110.687 41.8184 110.865 41.946 111.006C42.0782 111.143 42.2286 111.243 42.3972 111.307C42.5704 111.371 42.7595 111.403 42.9646 111.403C43.2243 111.403 43.4545 111.353 43.655 111.252C43.8555 111.152 44.0241 110.993 44.1609 110.774C44.2976 110.551 44.4001 110.261 44.4685 109.906C44.5368 109.55 44.571 109.124 44.571 108.627ZM49.2944 111.28H49.4311C50.06 111.28 50.5841 111.198 51.0034 111.034C51.4272 110.865 51.7644 110.633 52.0151 110.336C52.2657 110.04 52.4457 109.692 52.5551 109.291C52.6645 108.889 52.7192 108.454 52.7192 107.985V106.269C52.7192 105.863 52.6759 105.508 52.5893 105.203C52.5073 104.893 52.3888 104.635 52.2338 104.43C52.0834 104.221 51.908 104.063 51.7075 103.958C51.5115 103.854 51.2996 103.801 51.0717 103.801C50.8211 103.801 50.5955 103.858 50.395 103.972C50.199 104.082 50.0327 104.234 49.8959 104.43C49.7638 104.622 49.6612 104.847 49.5883 105.107C49.52 105.362 49.4858 105.636 49.4858 105.927C49.4858 106.201 49.5177 106.465 49.5815 106.72C49.6498 106.971 49.7501 107.194 49.8823 107.39C50.0144 107.586 50.1808 107.741 50.3813 107.855C50.5818 107.969 50.8165 108.026 51.0854 108.026C51.3406 108.026 51.5753 107.978 51.7895 107.882C52.0037 107.782 52.1905 107.648 52.35 107.479C52.5095 107.31 52.6349 107.121 52.726 106.912C52.8172 106.702 52.8673 106.488 52.8764 106.269L53.5053 106.46C53.5053 106.807 53.4324 107.149 53.2866 107.486C53.1453 107.819 52.947 108.124 52.6918 108.402C52.4412 108.675 52.1472 108.894 51.81 109.058C51.4773 109.222 51.115 109.304 50.7231 109.304C50.2491 109.304 49.8299 109.215 49.4653 109.038C49.1052 108.855 48.8045 108.609 48.5629 108.299C48.3259 107.989 48.1482 107.634 48.0297 107.233C47.9112 106.832 47.852 106.41 47.852 105.968C47.852 105.49 47.9249 105.041 48.0707 104.622C48.2166 104.202 48.4285 103.833 48.7065 103.514C48.9845 103.191 49.3217 102.94 49.7182 102.762C50.1192 102.58 50.5727 102.489 51.0786 102.489C51.6163 102.489 52.088 102.594 52.4936 102.803C52.8992 103.013 53.241 103.302 53.519 103.671C53.797 104.041 54.0066 104.469 54.1479 104.957C54.2892 105.444 54.3598 105.968 54.3598 106.529V107.11C54.3598 107.698 54.3074 108.265 54.2026 108.812C54.0978 109.354 53.9269 109.858 53.6899 110.323C53.4575 110.783 53.1498 111.189 52.767 111.54C52.3888 111.886 51.9239 112.157 51.3725 112.353C50.8256 112.544 50.183 112.64 49.4448 112.64H49.2944V111.28ZM60.7033 102.591V112.579H59.0558V104.546L56.6154 105.374V104.013L60.505 102.591H60.7033ZM70.9296 106.768V108.395C70.9296 109.174 70.8521 109.84 70.6971 110.391C70.5468 110.938 70.328 111.382 70.0409 111.724C69.7538 112.066 69.4097 112.317 69.0087 112.476C68.6122 112.636 68.1679 112.715 67.6757 112.715C67.2837 112.715 66.9192 112.665 66.5819 112.565C66.2492 112.465 65.9484 112.307 65.6796 112.093C65.4107 111.879 65.1805 111.603 64.9891 111.266C64.8023 110.924 64.6565 110.516 64.5516 110.042C64.4514 109.569 64.4012 109.019 64.4012 108.395V106.768C64.4012 105.984 64.4787 105.323 64.6337 104.786C64.7886 104.243 65.0096 103.804 65.2968 103.466C65.5839 103.125 65.9257 102.876 66.3221 102.721C66.7232 102.566 67.1698 102.489 67.662 102.489C68.0585 102.489 68.4231 102.539 68.7557 102.639C69.093 102.735 69.3938 102.888 69.6581 103.097C69.927 103.307 70.1548 103.58 70.3417 103.917C70.5331 104.25 70.6789 104.653 70.7792 105.127C70.8794 105.597 70.9296 106.144 70.9296 106.768ZM69.2821 108.627V106.522C69.2821 106.125 69.2593 105.777 69.2137 105.476C69.1682 105.171 69.0998 104.913 69.0087 104.704C68.9221 104.489 68.8127 104.316 68.6805 104.184C68.5484 104.047 68.398 103.949 68.2294 103.89C68.0608 103.826 67.8716 103.794 67.662 103.794C67.4068 103.794 67.1789 103.845 66.9784 103.945C66.7779 104.041 66.6093 104.195 66.4725 104.41C66.3358 104.624 66.231 104.906 66.1581 105.257C66.0897 105.604 66.0555 106.025 66.0555 106.522V108.627C66.0555 109.028 66.0783 109.382 66.1239 109.687C66.1695 109.992 66.2378 110.254 66.329 110.473C66.4201 110.687 66.5295 110.865 66.6571 111.006C66.7893 111.143 66.9397 111.243 67.1083 111.307C67.2815 111.371 67.4706 111.403 67.6757 111.403C67.9354 111.403 68.1656 111.353 68.3661 111.252C68.5666 111.152 68.7352 110.993 68.872 110.774C69.0087 110.551 69.1112 110.261 69.1796 109.906C69.2479 109.55 69.2821 109.124 69.2821 108.627ZM77.6559 102.564H77.8609V103.911H77.7447C77.1568 103.911 76.6487 104.002 76.2203 104.184C75.7965 104.366 75.4479 104.617 75.1744 104.936C74.901 105.255 74.6959 105.629 74.5592 106.057C74.427 106.481 74.3609 106.932 74.3609 107.411V108.976C74.3609 109.373 74.4042 109.723 74.4908 110.029C74.5774 110.33 74.6982 110.583 74.8531 110.788C75.0126 110.988 75.1949 111.141 75.4 111.246C75.6051 111.35 75.8261 111.403 76.0631 111.403C76.3092 111.403 76.5325 111.353 76.733 111.252C76.9335 111.148 77.1044 111.004 77.2457 110.822C77.387 110.639 77.4941 110.423 77.567 110.172C77.6399 109.922 77.6764 109.648 77.6764 109.352C77.6764 109.069 77.6399 108.805 77.567 108.559C77.4986 108.308 77.3961 108.09 77.2594 107.903C77.1227 107.711 76.9518 107.563 76.7467 107.458C76.5462 107.349 76.3137 107.294 76.0494 107.294C75.7213 107.294 75.4228 107.372 75.1539 107.527C74.8896 107.682 74.6754 107.885 74.5113 108.135C74.3518 108.381 74.2652 108.643 74.2516 108.921L73.6227 108.716C73.6591 108.292 73.7525 107.912 73.9029 107.575C74.0579 107.237 74.2607 106.95 74.5113 106.713C74.762 106.476 75.0514 106.296 75.3795 106.173C75.7122 106.046 76.0768 105.982 76.4732 105.982C76.9563 105.982 77.3756 106.073 77.7311 106.255C78.0865 106.438 78.3805 106.686 78.6129 107C78.8499 107.31 79.0253 107.666 79.1393 108.067C79.2577 108.463 79.317 108.878 79.317 109.311C79.317 109.79 79.2441 110.236 79.0982 110.651C78.9524 111.061 78.7382 111.421 78.4557 111.731C78.1777 112.041 77.8382 112.282 77.4371 112.456C77.0406 112.629 76.5895 112.715 76.0836 112.715C75.5504 112.715 75.0742 112.613 74.6549 112.408C74.2402 112.203 73.887 111.92 73.5953 111.56C73.3082 111.2 73.0895 110.785 72.9391 110.316C72.7887 109.847 72.7135 109.35 72.7135 108.826V108.142C72.7135 107.386 72.8092 106.672 73.0006 106.002C73.192 105.328 73.4859 104.733 73.8824 104.218C74.2835 103.703 74.7962 103.3 75.4205 103.008C76.0449 102.712 76.79 102.564 77.6559 102.564ZM82.557 110.993L82.5501 112.168C82.5501 112.633 82.4339 113.112 82.2015 113.604C81.9691 114.096 81.6614 114.502 81.2786 114.821L80.3968 114.308C80.5244 114.103 80.6406 113.896 80.7454 113.686C80.8502 113.476 80.9346 113.253 80.9984 113.016C81.0622 112.779 81.0941 112.517 81.0941 112.23V110.993H82.557ZM89.3037 102.564H89.5088V103.911H89.3926C88.8047 103.911 88.2966 104.002 87.8682 104.184C87.4444 104.366 87.0957 104.617 86.8223 104.936C86.5489 105.255 86.3438 105.629 86.2071 106.057C86.0749 106.481 86.0088 106.932 86.0088 107.411V108.976C86.0088 109.373 86.0521 109.723 86.1387 110.029C86.2253 110.33 86.3461 110.583 86.501 110.788C86.6605 110.988 86.8428 111.141 87.0479 111.246C87.253 111.35 87.474 111.403 87.711 111.403C87.9571 111.403 88.1804 111.353 88.3809 111.252C88.5814 111.148 88.7523 111.004 88.8936 110.822C89.0349 110.639 89.142 110.423 89.2149 110.172C89.2878 109.922 89.3243 109.648 89.3243 109.352C89.3243 109.069 89.2878 108.805 89.2149 108.559C89.1465 108.308 89.044 108.09 88.9073 107.903C88.7705 107.711 88.5996 107.563 88.3946 107.458C88.194 107.349 87.9616 107.294 87.6973 107.294C87.3692 107.294 87.0707 107.372 86.8018 107.527C86.5375 107.682 86.3233 107.885 86.1592 108.135C85.9997 108.381 85.9131 108.643 85.8995 108.921L85.2705 108.716C85.307 108.292 85.4004 107.912 85.5508 107.575C85.7058 107.237 85.9086 106.95 86.1592 106.713C86.4099 106.476 86.6993 106.296 87.0274 106.173C87.3601 106.046 87.7246 105.982 88.1211 105.982C88.6042 105.982 89.0235 106.073 89.3789 106.255C89.7344 106.438 90.0284 106.686 90.2608 107C90.4978 107.31 90.6732 107.666 90.7871 108.067C90.9056 108.463 90.9649 108.878 90.9649 109.311C90.9649 109.79 90.892 110.236 90.7461 110.651C90.6003 111.061 90.3861 111.421 90.1036 111.731C89.8256 112.041 89.486 112.282 89.085 112.456C88.6885 112.629 88.2373 112.715 87.7315 112.715C87.1983 112.715 86.722 112.613 86.3028 112.408C85.8881 112.203 85.5349 111.92 85.2432 111.56C84.9561 111.2 84.7373 110.785 84.587 110.316C84.4366 109.847 84.3614 109.35 84.3614 108.826V108.142C84.3614 107.386 84.4571 106.672 84.6485 106.002C84.8399 105.328 85.1338 104.733 85.5303 104.218C85.9314 103.703 86.444 103.3 87.0684 103.008C87.6927 102.712 88.4379 102.564 89.3037 102.564ZM99.0515 106.768V108.395C99.0515 109.174 98.9741 109.84 98.8191 110.391C98.6687 110.938 98.45 111.382 98.1629 111.724C97.8757 112.066 97.5317 112.317 97.1306 112.476C96.7341 112.636 96.2898 112.715 95.7976 112.715C95.4057 112.715 95.0411 112.665 94.7039 112.565C94.3712 112.465 94.0704 112.307 93.8015 112.093C93.5326 111.879 93.3025 111.603 93.1111 111.266C92.9242 110.924 92.7784 110.516 92.6736 110.042C92.5733 109.569 92.5232 109.019 92.5232 108.395V106.768C92.5232 105.984 92.6007 105.323 92.7556 104.786C92.9106 104.243 93.1316 103.804 93.4187 103.466C93.7058 103.125 94.0476 102.876 94.4441 102.721C94.8451 102.566 95.2918 102.489 95.7839 102.489C96.1804 102.489 96.545 102.539 96.8777 102.639C97.2149 102.735 97.5157 102.888 97.78 103.097C98.0489 103.307 98.2768 103.58 98.4636 103.917C98.655 104.25 98.8009 104.653 98.9011 105.127C99.0014 105.597 99.0515 106.144 99.0515 106.768ZM97.4041 108.627V106.522C97.4041 106.125 97.3813 105.777 97.3357 105.476C97.2901 105.171 97.2218 104.913 97.1306 104.704C97.044 104.489 96.9347 104.316 96.8025 104.184C96.6703 104.047 96.5199 103.949 96.3513 103.89C96.1827 103.826 95.9936 103.794 95.7839 103.794C95.5287 103.794 95.3009 103.845 95.1004 103.945C94.8998 104.041 94.7312 104.195 94.5945 104.41C94.4578 104.624 94.353 104.906 94.28 105.257C94.2117 105.604 94.1775 106.025 94.1775 106.522V108.627C94.1775 109.028 94.2003 109.382 94.2459 109.687C94.2914 109.992 94.3598 110.254 94.4509 110.473C94.5421 110.687 94.6515 110.865 94.7791 111.006C94.9112 111.143 95.0616 111.243 95.2302 111.307C95.4034 111.371 95.5925 111.403 95.7976 111.403C96.0574 111.403 96.2875 111.353 96.488 111.252C96.6886 111.152 96.8572 110.993 96.9939 110.774C97.1306 110.551 97.2332 110.261 97.3015 109.906C97.3699 109.55 97.4041 109.124 97.4041 108.627Z" fill="white"/>
<path d="M21.0064 110.181C21.0064 109.785 20.8894 109.472 20.6554 109.241C20.4265 109.004 20.0348 108.787 19.4804 108.59C18.9259 108.392 18.4478 108.197 18.046 108.004C17.6441 107.807 17.2982 107.582 17.0083 107.332C16.7234 107.076 16.4996 106.777 16.3368 106.435C16.1792 106.093 16.1003 105.686 16.1003 105.213C16.1003 104.399 16.375 103.731 16.9243 103.211C17.4737 102.69 18.2036 102.386 19.1142 102.299V100.752H20.3349V102.321C21.2353 102.442 21.9398 102.798 22.4485 103.391C22.9571 103.979 23.2114 104.743 23.2114 105.683H21.0064C21.0064 105.105 20.8792 104.673 20.6249 104.389C20.3756 104.1 20.0399 103.955 19.6177 103.955C19.2006 103.955 18.8776 104.069 18.6487 104.295C18.4198 104.517 18.3054 104.825 18.3054 105.221C18.3054 105.587 18.4173 105.881 18.6411 106.103C18.8649 106.324 19.2795 106.551 19.8848 106.782C20.4952 107.014 20.9962 107.233 21.3879 107.44C21.7796 107.643 22.1102 107.874 22.3798 108.134C22.6494 108.39 22.8554 108.684 22.9978 109.016C23.1402 109.344 23.2114 109.727 23.2114 110.166C23.2114 110.986 22.9419 111.651 22.4027 112.162C21.8635 112.673 21.1208 112.974 20.1747 113.065V114.504H18.9616V113.073C17.9188 112.967 17.11 112.617 16.5352 112.024C15.9655 111.427 15.6807 110.634 15.6807 109.645H17.8857C17.8857 110.219 18.0282 110.66 18.313 110.969C18.6029 111.272 19.0175 111.424 19.5567 111.424C20.0043 111.424 20.3578 111.313 20.6173 111.092C20.8767 110.865 21.0064 110.561 21.0064 110.181Z" fill="#FEFEFE"/>
<path d="M141.234 172.686C141.234 193.414 126.524 208.174 110.756 208.174C94.9888 208.174 80.2783 193.414 80.2783 172.686C80.2783 151.958 94.9888 137.198 110.756 137.198C126.524 137.198 141.234 151.958 141.234 172.686Z" stroke="url(#paint0_linear_2080_2478)" stroke-width="20"/>
</g>
<defs>
<linearGradient id="paint0_linear_2080_2478" x1="106.203" y1="108.435" x2="117.656" y2="188.27" gradientUnits="userSpaceOnUse">
<stop stop-color="#FFE6C8"/>
<stop offset="1" stop-color="#FFDEB8" stop-opacity="0"/>
</linearGradient>
</defs>
</svg>
