<svg width="138" height="166" viewBox="0 0 138 166" fill="none" xmlns="http://www.w3.org/2000/svg">
<mask id="mask0_2080_2627" style="mask-type:alpha" maskUnits="userSpaceOnUse" x="0" y="0" width="138" height="166">
<rect x="0.266846" y="0.256226" width="137.419" height="165.025" rx="12" fill="#60BC63"/>
</mask>
<g mask="url(#mask0_2080_2627)">
<path d="M38.8306 102.591V112.579H37.1831V104.546L34.7427 105.374V104.013L38.6323 102.591H38.8306ZM49.0569 106.768V108.395C49.0569 109.174 48.9794 109.84 48.8244 110.391C48.674 110.938 48.4553 111.382 48.1682 111.724C47.8811 112.066 47.537 112.317 47.136 112.476C46.7395 112.636 46.2951 112.715 45.8029 112.715C45.411 112.715 45.0464 112.665 44.7092 112.565C44.3765 112.465 44.0757 112.307 43.8069 112.093C43.538 111.879 43.3078 111.603 43.1164 111.266C42.9296 110.924 42.7837 110.516 42.6789 110.042C42.5787 109.569 42.5285 109.019 42.5285 108.395V106.768C42.5285 105.984 42.606 105.323 42.761 104.786C42.9159 104.243 43.1369 103.804 43.424 103.466C43.7112 103.125 44.0529 102.876 44.4494 102.721C44.8505 102.566 45.2971 102.489 45.7893 102.489C46.1858 102.489 46.5503 102.539 46.883 102.639C47.2203 102.735 47.521 102.888 47.7854 103.097C48.0543 103.307 48.2821 103.58 48.469 103.917C48.6604 104.25 48.8062 104.653 48.9065 105.127C49.0067 105.597 49.0569 106.144 49.0569 106.768ZM47.4094 108.627V106.522C47.4094 106.125 47.3866 105.777 47.341 105.476C47.2955 105.171 47.2271 104.913 47.136 104.704C47.0494 104.489 46.94 104.316 46.8078 104.184C46.6757 104.047 46.5253 103.949 46.3567 103.89C46.188 103.826 45.9989 103.794 45.7893 103.794C45.5341 103.794 45.3062 103.845 45.1057 103.945C44.9052 104.041 44.7365 104.195 44.5998 104.41C44.4631 104.624 44.3583 104.906 44.2854 105.257C44.217 105.604 44.1828 106.025 44.1828 106.522V108.627C44.1828 109.028 44.2056 109.382 44.2512 109.687C44.2968 109.992 44.3651 110.254 44.4563 110.473C44.5474 110.687 44.6568 110.865 44.7844 111.006C44.9166 111.143 45.0669 111.243 45.2356 111.307C45.4087 111.371 45.5979 111.403 45.8029 111.403C46.0627 111.403 46.2929 111.353 46.4934 111.252C46.6939 111.152 46.8625 110.993 46.9992 110.774C47.136 110.551 47.2385 110.261 47.3069 109.906C47.3752 109.55 47.4094 109.124 47.4094 108.627ZM52.1328 111.28H52.2695C52.8984 111.28 53.4225 111.198 53.8417 111.034C54.2656 110.865 54.6028 110.633 54.8535 110.336C55.1041 110.04 55.2841 109.692 55.3935 109.291C55.5029 108.889 55.5576 108.454 55.5576 107.985V106.269C55.5576 105.863 55.5143 105.508 55.4277 105.203C55.3456 104.893 55.2272 104.635 55.0722 104.43C54.9218 104.221 54.7464 104.063 54.5458 103.958C54.3499 103.854 54.138 103.801 53.9101 103.801C53.6594 103.801 53.4339 103.858 53.2333 103.972C53.0374 104.082 52.871 104.234 52.7343 104.43C52.6022 104.622 52.4996 104.847 52.4267 105.107C52.3583 105.362 52.3242 105.636 52.3242 105.927C52.3242 106.201 52.3561 106.465 52.4199 106.72C52.4882 106.971 52.5885 107.194 52.7206 107.39C52.8528 107.586 53.0191 107.741 53.2197 107.855C53.4202 107.969 53.6549 108.026 53.9238 108.026C54.179 108.026 54.4137 107.978 54.6279 107.882C54.8421 107.782 55.0289 107.648 55.1884 107.479C55.3479 107.31 55.4732 107.121 55.5644 106.912C55.6555 106.702 55.7057 106.488 55.7148 106.269L56.3437 106.46C56.3437 106.807 56.2708 107.149 56.1249 107.486C55.9837 107.819 55.7854 108.124 55.5302 108.402C55.2796 108.675 54.9856 108.894 54.6484 109.058C54.3157 109.222 53.9534 109.304 53.5615 109.304C53.0875 109.304 52.6682 109.215 52.3037 109.038C51.9436 108.855 51.6428 108.609 51.4013 108.299C51.1643 107.989 50.9866 107.634 50.8681 107.233C50.7496 106.832 50.6904 106.41 50.6904 105.968C50.6904 105.49 50.7633 105.041 50.9091 104.622C51.055 104.202 51.2669 103.833 51.5449 103.514C51.8229 103.191 52.1601 102.94 52.5566 102.762C52.9576 102.58 53.4111 102.489 53.9169 102.489C54.4547 102.489 54.9264 102.594 55.332 102.803C55.7376 103.013 56.0794 103.302 56.3574 103.671C56.6354 104.041 56.845 104.469 56.9863 104.957C57.1275 105.444 57.1982 105.968 57.1982 106.529V107.11C57.1982 107.698 57.1458 108.265 57.041 108.812C56.9361 109.354 56.7652 109.858 56.5283 110.323C56.2958 110.783 55.9882 111.189 55.6054 111.54C55.2272 111.886 54.7623 112.157 54.2109 112.353C53.664 112.544 53.0214 112.64 52.2831 112.64H52.1328V111.28ZM63.5417 102.591V112.579H61.8942V104.546L59.4538 105.374V104.013L63.3434 102.591H63.5417ZM73.7679 106.768V108.395C73.7679 109.174 73.6905 109.84 73.5355 110.391C73.3851 110.938 73.1664 111.382 72.8793 111.724C72.5922 112.066 72.2481 112.317 71.847 112.476C71.4506 112.636 71.0062 112.715 70.514 112.715C70.1221 112.715 69.7575 112.665 69.4203 112.565C69.0876 112.465 68.7868 112.307 68.5179 112.093C68.2491 111.879 68.0189 111.603 67.8275 111.266C67.6407 110.924 67.4948 110.516 67.39 110.042C67.2898 109.569 67.2396 109.019 67.2396 108.395V106.768C67.2396 105.984 67.3171 105.323 67.472 104.786C67.627 104.243 67.848 103.804 68.1351 103.466C68.4222 103.125 68.764 102.876 69.1605 102.721C69.5616 102.566 70.0082 102.489 70.5004 102.489C70.8969 102.489 71.2614 102.539 71.5941 102.639C71.9314 102.735 72.2321 102.888 72.4965 103.097C72.7653 103.307 72.9932 103.58 73.1801 103.917C73.3715 104.25 73.5173 104.653 73.6176 105.127C73.7178 105.597 73.7679 106.144 73.7679 106.768ZM72.1205 108.627V106.522C72.1205 106.125 72.0977 105.777 72.0521 105.476C72.0066 105.171 71.9382 104.913 71.847 104.704C71.7605 104.489 71.6511 104.316 71.5189 104.184C71.3868 104.047 71.2364 103.949 71.0678 103.89C70.8991 103.826 70.71 103.794 70.5004 103.794C70.2452 103.794 70.0173 103.845 69.8168 103.945C69.6163 104.041 69.4476 104.195 69.3109 104.41C69.1742 104.624 69.0694 104.906 68.9965 105.257C68.9281 105.604 68.8939 106.025 68.8939 106.522V108.627C68.8939 109.028 68.9167 109.382 68.9623 109.687C69.0079 109.992 69.0762 110.254 69.1674 110.473C69.2585 110.687 69.3679 110.865 69.4955 111.006C69.6276 111.143 69.778 111.243 69.9467 111.307C70.1198 111.371 70.309 111.403 70.514 111.403C70.7738 111.403 71.004 111.353 71.2045 111.252C71.405 111.152 71.5736 110.993 71.7103 110.774C71.847 110.551 71.9496 110.261 72.0179 109.906C72.0863 109.55 72.1205 109.124 72.1205 108.627ZM80.4942 102.564H80.6993V103.911H80.5831C79.9952 103.911 79.4871 104.002 79.0587 104.184C78.6349 104.366 78.2862 104.617 78.0128 104.936C77.7394 105.255 77.5343 105.629 77.3976 106.057C77.2654 106.481 77.1993 106.932 77.1993 107.411V108.976C77.1993 109.373 77.2426 109.723 77.3292 110.029C77.4158 110.33 77.5366 110.583 77.6915 110.788C77.851 110.988 78.0333 111.141 78.2384 111.246C78.4435 111.35 78.6645 111.403 78.9015 111.403C79.1476 111.403 79.3709 111.353 79.5714 111.252C79.7719 111.148 79.9428 111.004 80.0841 110.822C80.2254 110.639 80.3325 110.423 80.4054 110.172C80.4783 109.922 80.5147 109.648 80.5147 109.352C80.5147 109.069 80.4783 108.805 80.4054 108.559C80.337 108.308 80.2345 108.09 80.0978 107.903C79.961 107.711 79.7901 107.563 79.5851 107.458C79.3845 107.349 79.1521 107.294 78.8878 107.294C78.5597 107.294 78.2612 107.372 77.9923 107.527C77.728 107.682 77.5138 107.885 77.3497 108.135C77.1902 108.381 77.1036 108.643 77.0899 108.921L76.461 108.716C76.4975 108.292 76.5909 107.912 76.7413 107.575C76.8963 107.237 77.0991 106.95 77.3497 106.713C77.6004 106.476 77.8897 106.296 78.2179 106.173C78.5506 106.046 78.9151 105.982 79.3116 105.982C79.7947 105.982 80.214 106.073 80.5694 106.255C80.9249 106.438 81.2188 106.686 81.4513 107C81.6883 107.31 81.8637 107.666 81.9776 108.067C82.0961 108.463 82.1554 108.878 82.1554 109.311C82.1554 109.79 82.0825 110.236 81.9366 110.651C81.7908 111.061 81.5766 111.421 81.294 111.731C81.016 112.041 80.6765 112.282 80.2755 112.456C79.879 112.629 79.4278 112.715 78.922 112.715C78.3888 112.715 77.9125 112.613 77.4933 112.408C77.0785 112.203 76.7254 111.92 76.4337 111.56C76.1466 111.2 75.9278 110.785 75.7774 110.316C75.6271 109.847 75.5519 109.35 75.5519 108.826V108.142C75.5519 107.386 75.6476 106.672 75.839 106.002C76.0304 105.328 76.3243 104.733 76.7208 104.218C77.1218 103.703 77.6345 103.3 78.2589 103.008C78.8832 102.712 79.6284 102.564 80.4942 102.564ZM85.3953 110.993L85.3885 112.168C85.3885 112.633 85.2723 113.112 85.0399 113.604C84.8074 114.096 84.4998 114.502 84.117 114.821L83.2352 114.308C83.3628 114.103 83.479 113.896 83.5838 113.686C83.6886 113.476 83.7729 113.253 83.8367 113.016C83.9005 112.779 83.9324 112.517 83.9324 112.23V110.993H85.3953ZM92.1421 102.564H92.3472V103.911H92.231C91.6431 103.911 91.135 104.002 90.7066 104.184C90.2828 104.366 89.9341 104.617 89.6607 104.936C89.3872 105.255 89.1822 105.629 89.0454 106.057C88.9133 106.481 88.8472 106.932 88.8472 107.411V108.976C88.8472 109.373 88.8905 109.723 88.9771 110.029C89.0637 110.33 89.1844 110.583 89.3394 110.788C89.4989 110.988 89.6812 111.141 89.8863 111.246C90.0913 111.35 90.3124 111.403 90.5494 111.403C90.7954 111.403 91.0188 111.353 91.2193 111.252C91.4198 111.148 91.5907 111.004 91.732 110.822C91.8732 110.639 91.9803 110.423 92.0533 110.172C92.1262 109.922 92.1626 109.648 92.1626 109.352C92.1626 109.069 92.1262 108.805 92.0533 108.559C91.9849 108.308 91.8824 108.09 91.7456 107.903C91.6089 107.711 91.438 107.563 91.2329 107.458C91.0324 107.349 90.8 107.294 90.5357 107.294C90.2076 107.294 89.9091 107.372 89.6402 107.527C89.3759 107.682 89.1617 107.885 88.9976 108.135C88.8381 108.381 88.7515 108.643 88.7378 108.921L88.1089 108.716C88.1454 108.292 88.2388 107.912 88.3892 107.575C88.5441 107.237 88.7469 106.95 88.9976 106.713C89.2482 106.476 89.5376 106.296 89.8658 106.173C90.1984 106.046 90.563 105.982 90.9595 105.982C91.4426 105.982 91.8619 106.073 92.2173 106.255C92.5728 106.438 92.8667 106.686 93.0992 107C93.3361 107.31 93.5116 107.666 93.6255 108.067C93.744 108.463 93.8033 108.878 93.8033 109.311C93.8033 109.79 93.7303 110.236 93.5845 110.651C93.4387 111.061 93.2245 111.421 92.9419 111.731C92.6639 112.041 92.3244 112.282 91.9234 112.456C91.5269 112.629 91.0757 112.715 90.5699 112.715C90.0367 112.715 89.5604 112.613 89.1412 112.408C88.7264 112.203 88.3732 111.92 88.0816 111.56C87.7945 111.2 87.5757 110.785 87.4253 110.316C87.2749 109.847 87.1997 109.35 87.1997 108.826V108.142C87.1997 107.386 87.2954 106.672 87.4869 106.002C87.6783 105.328 87.9722 104.733 88.3687 104.218C88.7697 103.703 89.2824 103.3 89.9068 103.008C90.5311 102.712 91.2762 102.564 92.1421 102.564ZM101.89 106.768V108.395C101.89 109.174 101.812 109.84 101.657 110.391C101.507 110.938 101.288 111.382 101.001 111.724C100.714 112.066 100.37 112.317 99.969 112.476C99.5725 112.636 99.1282 112.715 98.636 112.715C98.2441 112.715 97.8795 112.665 97.5422 112.565C97.2096 112.465 96.9088 112.307 96.6399 112.093C96.371 111.879 96.1409 111.603 95.9495 111.266C95.7626 110.924 95.6168 110.516 95.512 110.042C95.4117 109.569 95.3616 109.019 95.3616 108.395V106.768C95.3616 105.984 95.4391 105.323 95.594 104.786C95.749 104.243 95.97 103.804 96.2571 103.466C96.5442 103.125 96.886 102.876 97.2825 102.721C97.6835 102.566 98.1301 102.489 98.6223 102.489C99.0188 102.489 99.3834 102.539 99.7161 102.639C100.053 102.735 100.354 102.888 100.618 103.097C100.887 103.307 101.115 103.58 101.302 103.917C101.493 104.25 101.639 104.653 101.74 105.127C101.84 105.597 101.89 106.144 101.89 106.768ZM100.242 108.627V106.522C100.242 106.125 100.22 105.777 100.174 105.476C100.129 105.171 100.06 104.913 99.969 104.704C99.8824 104.489 99.773 104.316 99.6409 104.184C99.5087 104.047 99.3583 103.949 99.1897 103.89C99.0211 103.826 98.832 103.794 98.6223 103.794C98.3671 103.794 98.1393 103.845 97.9387 103.945C97.7382 104.041 97.5696 104.195 97.4329 104.41C97.2962 104.624 97.1913 104.906 97.1184 105.257C97.0501 105.604 97.0159 106.025 97.0159 106.522V108.627C97.0159 109.028 97.0387 109.382 97.0842 109.687C97.1298 109.992 97.1982 110.254 97.2893 110.473C97.3805 110.687 97.4898 110.865 97.6174 111.006C97.7496 111.143 97.9 111.243 98.0686 111.307C98.2418 111.371 98.4309 111.403 98.636 111.403C98.8958 111.403 99.1259 111.353 99.3264 111.252C99.5269 111.152 99.6956 110.993 99.8323 110.774C99.969 110.551 100.072 110.261 100.14 109.906C100.208 109.55 100.242 109.124 100.242 108.627Z" fill="white"/>
<path d="M22.8135 110.181C22.8135 109.785 22.6841 109.472 22.4254 109.241C22.1722 109.004 21.7391 108.787 21.1259 108.59C20.5127 108.392 19.9839 108.197 19.5395 108.004C19.0951 107.807 18.7126 107.582 18.3919 107.332C18.0769 107.076 17.8294 106.777 17.6494 106.435C17.475 106.093 17.3878 105.686 17.3878 105.213C17.3878 104.399 17.6916 103.731 18.2991 103.211C18.9067 102.69 19.7139 102.386 20.7209 102.299V100.752H22.071V102.321C23.0667 102.442 23.8458 102.798 24.4083 103.391C24.9709 103.979 25.2522 104.743 25.2522 105.683H22.8135C22.8135 105.105 22.6729 104.673 22.3916 104.389C22.116 104.1 21.7447 103.955 21.2778 103.955C20.8165 103.955 20.4593 104.069 20.2061 104.295C19.953 104.517 19.8264 104.825 19.8264 105.221C19.8264 105.587 19.9502 105.881 20.1977 106.103C20.4452 106.324 20.9037 106.551 21.5731 106.782C22.2482 107.014 22.8023 107.233 23.2354 107.44C23.6686 107.643 24.0342 107.874 24.3324 108.134C24.6305 108.39 24.8584 108.684 25.0159 109.016C25.1734 109.344 25.2522 109.727 25.2522 110.166C25.2522 110.986 24.954 111.651 24.3577 112.162C23.7614 112.673 22.9401 112.974 21.8938 113.065V114.504H20.5521V113.073C19.3989 112.967 18.5045 112.617 17.8688 112.024C17.2387 111.427 16.9237 110.634 16.9237 109.645H19.3623C19.3623 110.219 19.5198 110.66 19.8349 110.969C20.1555 111.272 20.614 111.424 21.2103 111.424C21.7053 111.424 22.0963 111.313 22.3832 111.092C22.6701 110.865 22.8135 110.561 22.8135 110.181Z" fill="#FEFEFE"/>
<path d="M156.836 172.686C156.836 192.437 141.12 208.174 122.07 208.174C103.02 208.174 87.3049 192.437 87.3049 172.686C87.3049 152.935 103.02 137.198 122.07 137.198C141.12 137.198 156.836 152.935 156.836 172.686Z" stroke="url(#paint0_linear_2080_2627)" stroke-width="20"/>
</g>
<defs>
<linearGradient id="paint0_linear_2080_2627" x1="117.034" y1="108.435" x2="127.429" y2="188.565" gradientUnits="userSpaceOnUse">
<stop stop-color="#FFE6C8"/>
<stop offset="1" stop-color="#FFDEB8" stop-opacity="0"/>
</linearGradient>
</defs>
</svg>
