<svg width="132" height="166" viewBox="0 0 132 166" fill="none" xmlns="http://www.w3.org/2000/svg">
<mask id="mask0_2080_2147" style="mask-type:alpha" maskUnits="userSpaceOnUse" x="0" y="0" width="132" height="166">
<rect y="0.256195" width="132" height="165.025" rx="12" fill="#60BC63"/>
</mask>
<g mask="url(#mask0_2080_2147)">
<path d="M37.25 102.591V112.579H35.6025V104.546L33.1621 105.373V104.013L37.0518 102.591H37.25ZM47.4763 106.768V108.395C47.4763 109.174 47.3988 109.84 47.2439 110.391C47.0935 110.938 46.8747 111.382 46.5876 111.724C46.3005 112.066 45.9564 112.316 45.5554 112.476C45.1589 112.635 44.7146 112.715 44.2224 112.715C43.8305 112.715 43.4659 112.665 43.1286 112.565C42.796 112.465 42.4952 112.307 42.2263 112.093C41.9574 111.879 41.7273 111.603 41.5359 111.266C41.349 110.924 41.2032 110.516 41.0984 110.042C40.9981 109.568 40.948 109.019 40.948 108.395V106.768C40.948 105.984 41.0254 105.323 41.1804 104.786C41.3353 104.243 41.5564 103.803 41.8435 103.466C42.1306 103.124 42.4724 102.876 42.8689 102.721C43.2699 102.566 43.7165 102.489 44.2087 102.489C44.6052 102.489 44.9698 102.539 45.3025 102.639C45.6397 102.735 45.9405 102.887 46.2048 103.097C46.4737 103.307 46.7015 103.58 46.8884 103.917C47.0798 104.25 47.2256 104.653 47.3259 105.127C47.4262 105.597 47.4763 106.144 47.4763 106.768ZM45.8288 108.627V106.522C45.8288 106.125 45.806 105.777 45.7605 105.476C45.7149 105.171 45.6465 104.913 45.5554 104.704C45.4688 104.489 45.3594 104.316 45.2273 104.184C45.0951 104.047 44.9447 103.949 44.7761 103.89C44.6075 103.826 44.4183 103.794 44.2087 103.794C43.9535 103.794 43.7256 103.844 43.5251 103.945C43.3246 104.04 43.156 104.195 43.0193 104.41C42.8825 104.624 42.7777 104.906 42.7048 105.257C42.6364 105.604 42.6023 106.025 42.6023 106.522V108.627C42.6023 109.028 42.6251 109.382 42.6706 109.687C42.7162 109.992 42.7846 110.254 42.8757 110.473C42.9668 110.687 43.0762 110.865 43.2038 111.006C43.336 111.143 43.4864 111.243 43.655 111.307C43.8282 111.371 44.0173 111.403 44.2224 111.403C44.4821 111.403 44.7123 111.353 44.9128 111.252C45.1133 111.152 45.282 110.993 45.4187 110.774C45.5554 110.551 45.6579 110.261 45.7263 109.906C45.7946 109.55 45.8288 109.124 45.8288 108.627ZM50.5522 111.28H50.6889C51.3178 111.28 51.8419 111.198 52.2612 111.034C52.685 110.865 53.0222 110.633 53.2729 110.336C53.5235 110.04 53.7036 109.691 53.8129 109.29C53.9223 108.889 53.977 108.454 53.977 107.985V106.269C53.977 105.863 53.9337 105.508 53.8471 105.203C53.7651 104.893 53.6466 104.635 53.4916 104.43C53.3412 104.22 53.1658 104.063 52.9653 103.958C52.7693 103.854 52.5574 103.801 52.3295 103.801C52.0789 103.801 51.8533 103.858 51.6528 103.972C51.4568 104.081 51.2905 104.234 51.1537 104.43C51.0216 104.621 50.919 104.847 50.8461 105.107C50.7778 105.362 50.7436 105.635 50.7436 105.927C50.7436 106.201 50.7755 106.465 50.8393 106.72C50.9077 106.971 51.0079 107.194 51.1401 107.39C51.2722 107.586 51.4386 107.741 51.6391 107.855C51.8396 107.969 52.0743 108.026 52.3432 108.026C52.5984 108.026 52.8331 107.978 53.0473 107.882C53.2615 107.782 53.4483 107.648 53.6079 107.479C53.7674 107.31 53.8927 107.121 53.9838 106.912C54.075 106.702 54.1251 106.488 54.1342 106.269L54.7631 106.46C54.7631 106.807 54.6902 107.149 54.5444 107.486C54.4031 107.818 54.2049 108.124 53.9496 108.402C53.699 108.675 53.4051 108.894 53.0678 109.058C52.7351 109.222 52.3728 109.304 51.9809 109.304C51.5069 109.304 51.0877 109.215 50.7231 109.038C50.3631 108.855 50.0623 108.609 49.8207 108.299C49.5838 107.989 49.406 107.634 49.2875 107.233C49.169 106.832 49.1098 106.41 49.1098 105.968C49.1098 105.49 49.1827 105.041 49.3286 104.621C49.4744 104.202 49.6863 103.833 49.9643 103.514C50.2423 103.191 50.5795 102.94 50.976 102.762C51.3771 102.58 51.8305 102.489 52.3364 102.489C52.8741 102.489 53.3458 102.593 53.7514 102.803C54.157 103.013 54.4988 103.302 54.7768 103.671C55.0548 104.04 55.2644 104.469 55.4057 104.956C55.547 105.444 55.6176 105.968 55.6176 106.529V107.11C55.6176 107.698 55.5652 108.265 55.4604 108.812C55.3556 109.354 55.1847 109.858 54.9477 110.323C54.7153 110.783 54.4077 111.189 54.0248 111.539C53.6466 111.886 53.1817 112.157 52.6303 112.353C52.0834 112.544 51.4409 112.64 50.7026 112.64H50.5522V111.28ZM61.9611 102.591V112.579H60.3136V104.546L57.8732 105.373V104.013L61.7629 102.591H61.9611ZM72.1874 106.768V108.395C72.1874 109.174 72.1099 109.84 71.955 110.391C71.8046 110.938 71.5858 111.382 71.2987 111.724C71.0116 112.066 70.6675 112.316 70.2665 112.476C69.87 112.635 69.4257 112.715 68.9335 112.715C68.5415 112.715 68.177 112.665 67.8397 112.565C67.507 112.465 67.2063 112.307 66.9374 112.093C66.6685 111.879 66.4384 111.603 66.247 111.266C66.0601 110.924 65.9143 110.516 65.8095 110.042C65.7092 109.568 65.6591 109.019 65.6591 108.395V106.768C65.6591 105.984 65.7365 105.323 65.8915 104.786C66.0464 104.243 66.2675 103.803 66.5546 103.466C66.8417 103.124 67.1835 102.876 67.58 102.721C67.981 102.566 68.4276 102.489 68.9198 102.489C69.3163 102.489 69.6809 102.539 70.0136 102.639C70.3508 102.735 70.6516 102.887 70.9159 103.097C71.1848 103.307 71.4126 103.58 71.5995 103.917C71.7909 104.25 71.9367 104.653 72.037 105.127C72.1373 105.597 72.1874 106.144 72.1874 106.768ZM70.5399 108.627V106.522C70.5399 106.125 70.5171 105.777 70.4716 105.476C70.426 105.171 70.3576 104.913 70.2665 104.704C70.1799 104.489 70.0705 104.316 69.9384 104.184C69.8062 104.047 69.6558 103.949 69.4872 103.89C69.3186 103.826 69.1294 103.794 68.9198 103.794C68.6646 103.794 68.4367 103.844 68.2362 103.945C68.0357 104.04 67.8671 104.195 67.7304 104.41C67.5936 104.624 67.4888 104.906 67.4159 105.257C67.3475 105.604 67.3134 106.025 67.3134 106.522V108.627C67.3134 109.028 67.3361 109.382 67.3817 109.687C67.4273 109.992 67.4956 110.254 67.5868 110.473C67.6779 110.687 67.7873 110.865 67.9149 111.006C68.0471 111.143 68.1975 111.243 68.3661 111.307C68.5393 111.371 68.7284 111.403 68.9335 111.403C69.1932 111.403 69.4234 111.353 69.6239 111.252C69.8244 111.152 69.993 110.993 70.1298 110.774C70.2665 110.551 70.369 110.261 70.4374 109.906C70.5057 109.55 70.5399 109.124 70.5399 108.627ZM78.9137 102.564H79.1188V103.911H79.0025C78.4146 103.911 77.9065 104.002 77.4781 104.184C77.0543 104.366 76.7057 104.617 76.4322 104.936C76.1588 105.255 75.9537 105.629 75.817 106.057C75.6848 106.481 75.6188 106.932 75.6188 107.411V108.976C75.6188 109.372 75.662 109.723 75.7486 110.029C75.8352 110.329 75.956 110.582 76.1109 110.788C76.2704 110.988 76.4527 111.141 76.6578 111.246C76.8629 111.35 77.0839 111.403 77.3209 111.403C77.567 111.403 77.7903 111.353 77.9908 111.252C78.1913 111.148 78.3622 111.004 78.5035 110.822C78.6448 110.639 78.7519 110.423 78.8248 110.172C78.8977 109.922 78.9342 109.648 78.9342 109.352C78.9342 109.069 78.8977 108.805 78.8248 108.559C78.7564 108.308 78.6539 108.09 78.5172 107.903C78.3805 107.711 78.2096 107.563 78.0045 107.458C77.804 107.349 77.5716 107.294 77.3072 107.294C76.9791 107.294 76.6806 107.372 76.4117 107.527C76.1474 107.682 75.9332 107.885 75.7691 108.135C75.6096 108.381 75.523 108.643 75.5094 108.921L74.8805 108.716C74.9169 108.292 75.0104 107.912 75.1607 107.575C75.3157 107.237 75.5185 106.95 75.7691 106.713C76.0198 106.476 76.3092 106.296 76.6373 106.173C76.97 106.046 77.3346 105.982 77.7311 105.982C78.2141 105.982 78.6334 106.073 78.9889 106.255C79.3443 106.438 79.6383 106.686 79.8707 107C80.1077 107.31 80.2831 107.666 80.3971 108.067C80.5156 108.463 80.5748 108.878 80.5748 109.311C80.5748 109.789 80.5019 110.236 80.3561 110.651C80.2102 111.061 79.996 111.421 79.7135 111.731C79.4355 112.041 79.096 112.282 78.6949 112.455C78.2984 112.629 77.8473 112.715 77.3414 112.715C76.8082 112.715 76.332 112.613 75.9127 112.408C75.498 112.203 75.1448 111.92 74.8531 111.56C74.566 111.2 74.3473 110.785 74.1969 110.316C74.0465 109.846 73.9713 109.35 73.9713 108.826V108.142C73.9713 107.385 74.067 106.672 74.2584 106.002C74.4498 105.328 74.7438 104.733 75.1402 104.218C75.5413 103.703 76.054 103.3 76.6783 103.008C77.3027 102.712 78.0478 102.564 78.9137 102.564ZM83.8148 110.993L83.8079 112.168C83.8079 112.633 83.6917 113.112 83.4593 113.604C83.2269 114.096 82.9193 114.502 82.5364 114.821L81.6546 114.308C81.7822 114.103 81.8984 113.896 82.0032 113.686C82.1081 113.476 82.1924 113.253 82.2562 113.016C82.32 112.779 82.3519 112.517 82.3519 112.23V110.993H83.8148ZM90.5616 102.564H90.7666V103.911H90.6504C90.0625 103.911 89.5544 104.002 89.126 104.184C88.7022 104.366 88.3536 104.617 88.0801 104.936C87.8067 105.255 87.6016 105.629 87.4649 106.057C87.3327 106.481 87.2666 106.932 87.2666 107.411V108.976C87.2666 109.372 87.3099 109.723 87.3965 110.029C87.4831 110.329 87.6039 110.582 87.7588 110.788C87.9183 110.988 88.1006 111.141 88.3057 111.246C88.5108 111.35 88.7318 111.403 88.9688 111.403C89.2149 111.403 89.4382 111.353 89.6387 111.252C89.8392 111.148 90.0101 111.004 90.1514 110.822C90.2927 110.639 90.3998 110.423 90.4727 110.172C90.5456 109.922 90.5821 109.648 90.5821 109.352C90.5821 109.069 90.5456 108.805 90.4727 108.559C90.4043 108.308 90.3018 108.09 90.1651 107.903C90.0284 107.711 89.8575 107.563 89.6524 107.458C89.4519 107.349 89.2194 107.294 88.9551 107.294C88.627 107.294 88.3285 107.372 88.0596 107.527C87.7953 107.682 87.5811 107.885 87.417 108.135C87.2575 108.381 87.1709 108.643 87.1573 108.921L86.5284 108.716C86.5648 108.292 86.6582 107.912 86.8086 107.575C86.9636 107.237 87.1664 106.95 87.417 106.713C87.6677 106.476 87.9571 106.296 88.2852 106.173C88.6179 106.046 88.9825 105.982 89.3789 105.982C89.862 105.982 90.2813 106.073 90.6368 106.255C90.9922 106.438 91.2862 106.686 91.5186 107C91.7556 107.31 91.931 107.666 92.045 108.067C92.1634 108.463 92.2227 108.878 92.2227 109.311C92.2227 109.789 92.1498 110.236 92.0039 110.651C91.8581 111.061 91.6439 111.421 91.3614 111.731C91.0834 112.041 90.7439 112.282 90.3428 112.455C89.9463 112.629 89.4952 112.715 88.9893 112.715C88.4561 112.715 87.9799 112.613 87.5606 112.408C87.1459 112.203 86.7927 111.92 86.501 111.56C86.2139 111.2 85.9952 110.785 85.8448 110.316C85.6944 109.846 85.6192 109.35 85.6192 108.826V108.142C85.6192 107.385 85.7149 106.672 85.9063 106.002C86.0977 105.328 86.3916 104.733 86.7881 104.218C87.1892 103.703 87.7019 103.3 88.3262 103.008C88.9506 102.712 89.6957 102.564 90.5616 102.564ZM100.309 106.768V108.395C100.309 109.174 100.232 109.84 100.077 110.391C99.9265 110.938 99.7078 111.382 99.4207 111.724C99.1336 112.066 98.7895 112.316 98.3884 112.476C97.992 112.635 97.5476 112.715 97.0554 112.715C96.6635 112.715 96.2989 112.665 95.9617 112.565C95.629 112.465 95.3282 112.307 95.0593 112.093C94.7905 111.879 94.5603 111.603 94.3689 111.266C94.1821 110.924 94.0362 110.516 93.9314 110.042C93.8311 109.568 93.781 109.019 93.781 108.395V106.768C93.781 105.984 93.8585 105.323 94.0134 104.786C94.1684 104.243 94.3894 103.803 94.6765 103.466C94.9636 103.124 95.3054 102.876 95.7019 102.721C96.103 102.566 96.5496 102.489 97.0418 102.489C97.4382 102.489 97.8028 102.539 98.1355 102.639C98.4727 102.735 98.7735 102.887 99.0379 103.097C99.3067 103.307 99.5346 103.58 99.7214 103.917C99.9129 104.25 100.059 104.653 100.159 105.127C100.259 105.597 100.309 106.144 100.309 106.768ZM98.6619 108.627V106.522C98.6619 106.125 98.6391 105.777 98.5935 105.476C98.5479 105.171 98.4796 104.913 98.3884 104.704C98.3019 104.489 98.1925 104.316 98.0603 104.184C97.9282 104.047 97.7778 103.949 97.6091 103.89C97.4405 103.826 97.2514 103.794 97.0418 103.794C96.7866 103.794 96.5587 103.844 96.3582 103.945C96.1576 104.04 95.989 104.195 95.8523 104.41C95.7156 104.624 95.6108 104.906 95.5379 105.257C95.4695 105.604 95.4353 106.025 95.4353 106.522V108.627C95.4353 109.028 95.4581 109.382 95.5037 109.687C95.5492 109.992 95.6176 110.254 95.7088 110.473C95.7999 110.687 95.9093 110.865 96.0369 111.006C96.169 111.143 96.3194 111.243 96.488 111.307C96.6612 111.371 96.8504 111.403 97.0554 111.403C97.3152 111.403 97.5453 111.353 97.7459 111.252C97.9464 111.152 98.115 110.993 98.2517 110.774C98.3884 110.551 98.491 110.261 98.5593 109.906C98.6277 109.55 98.6619 109.124 98.6619 108.627Z" fill="white"/>
<path d="M21.6575 110.18C21.6575 109.785 21.5333 109.472 21.2847 109.24C21.0415 109.004 20.6255 108.787 20.0365 108.59C19.4475 108.392 18.9395 108.197 18.5127 108.004C18.0858 107.806 17.7183 107.582 17.4103 107.332C17.1077 107.076 16.87 106.777 16.6971 106.435C16.5296 106.093 16.4458 105.686 16.4458 105.213C16.4458 104.399 16.7376 103.731 17.3212 103.21C17.9048 102.69 18.6802 102.386 19.6474 102.299V100.752H20.9443V102.321C21.9007 102.442 22.6491 102.798 23.1895 103.391C23.7298 103.979 24 104.743 24 105.683H21.6575C21.6575 105.105 21.5225 104.673 21.2523 104.389C20.9875 104.1 20.6309 103.955 20.1824 103.955C19.7393 103.955 19.3961 104.068 19.153 104.295C18.9098 104.517 18.7882 104.825 18.7882 105.22C18.7882 105.587 18.9071 105.881 19.1449 106.103C19.3826 106.324 19.823 106.551 20.4661 106.782C21.1145 107.014 21.6467 107.233 22.0628 107.44C22.4789 107.643 22.8301 107.874 23.1165 108.134C23.4029 108.39 23.6217 108.684 23.773 109.016C23.9243 109.344 24 109.727 24 110.166C24 110.985 23.7136 111.651 23.1408 112.162C22.5681 112.672 21.7791 112.974 20.7741 113.065V114.504H19.4853V113.073C18.3776 112.967 17.5184 112.617 16.9078 112.024C16.3026 111.426 16 110.634 16 109.645H18.3425C18.3425 110.219 18.4938 110.66 18.7964 110.969C19.1044 111.272 19.5447 111.424 20.1175 111.424C20.593 111.424 20.9686 111.313 21.2442 111.091C21.5198 110.865 21.6575 110.561 21.6575 110.18Z" fill="#FEFEFE"/>
<path d="M150 172.686C150 192.823 134.703 208.174 117 208.174C99.297 208.174 84 192.823 84 172.686C84 152.549 99.297 137.198 117 137.198C134.703 137.198 150 152.549 150 172.686Z" stroke="url(#paint0_linear_2080_2147)" stroke-width="20"/>
</g>
<defs>
<linearGradient id="paint0_linear_2080_2147" x1="112.162" y1="108.435" x2="122.969" y2="188.454" gradientUnits="userSpaceOnUse">
<stop stop-color="#FFE6C8"/>
<stop offset="1" stop-color="#FFDEB8" stop-opacity="0"/>
</linearGradient>
</defs>
</svg>
