<svg width="136" height="166" viewBox="0 0 136 166" fill="none" xmlns="http://www.w3.org/2000/svg">
<mask id="mask0_2080_522" style="mask-type:alpha" maskUnits="userSpaceOnUse" x="0" y="0" width="136" height="166">
<rect x="0.633545" y="0.256226" width="134.71" height="165.025" rx="12" fill="#60BC63"/>
</mask>
<g mask="url(#mask0_2080_522)">
<path d="M38.5405 102.591V112.579H36.8931V104.546L34.4526 105.374V104.013L38.3423 102.591H38.5405ZM48.7668 106.768V108.395C48.7668 109.174 48.6893 109.84 48.5344 110.391C48.384 110.938 48.1653 111.382 47.8781 111.724C47.591 112.066 47.247 112.317 46.8459 112.476C46.4494 112.636 46.0051 112.715 45.5129 112.715C45.121 112.715 44.7564 112.665 44.4192 112.565C44.0865 112.465 43.7857 112.307 43.5168 112.093C43.2479 111.879 43.0178 111.603 42.8264 111.266C42.6395 110.924 42.4937 110.516 42.3889 110.042C42.2886 109.569 42.2385 109.019 42.2385 108.395V106.768C42.2385 105.984 42.316 105.323 42.4709 104.786C42.6259 104.243 42.8469 103.804 43.134 103.466C43.4211 103.125 43.7629 102.876 44.1594 102.721C44.5604 102.566 45.0071 102.489 45.4992 102.489C45.8957 102.489 46.2603 102.539 46.593 102.639C46.9302 102.735 47.231 102.888 47.4953 103.097C47.7642 103.307 47.9921 103.58 48.1789 103.917C48.3703 104.25 48.5162 104.653 48.6164 105.127C48.7167 105.597 48.7668 106.144 48.7668 106.768ZM47.1194 108.627V106.522C47.1194 106.125 47.0966 105.777 47.051 105.476C47.0054 105.171 46.9371 104.913 46.8459 104.704C46.7593 104.489 46.65 104.316 46.5178 104.184C46.3856 104.047 46.2352 103.949 46.0666 103.89C45.898 103.826 45.7089 103.794 45.4992 103.794C45.244 103.794 45.0162 103.845 44.8156 103.945C44.6151 104.041 44.4465 104.195 44.3098 104.41C44.1731 104.624 44.0682 104.906 43.9953 105.257C43.927 105.604 43.8928 106.025 43.8928 106.522V108.627C43.8928 109.028 43.9156 109.382 43.9612 109.687C44.0067 109.992 44.0751 110.254 44.1662 110.473C44.2574 110.687 44.3668 110.865 44.4944 111.006C44.6265 111.143 44.7769 111.243 44.9455 111.307C45.1187 111.371 45.3078 111.403 45.5129 111.403C45.7727 111.403 46.0028 111.353 46.2033 111.252C46.4039 111.152 46.5725 110.993 46.7092 110.774C46.8459 110.551 46.9485 110.261 47.0168 109.906C47.0852 109.55 47.1194 109.124 47.1194 108.627ZM51.8427 111.28H51.9794C52.6083 111.28 53.1324 111.198 53.5517 111.034C53.9755 110.865 54.3128 110.633 54.5634 110.336C54.8141 110.04 54.9941 109.692 55.1035 109.291C55.2128 108.889 55.2675 108.454 55.2675 107.985V106.269C55.2675 105.863 55.2242 105.508 55.1376 105.203C55.0556 104.893 54.9371 104.635 54.7822 104.43C54.6318 104.221 54.4563 104.063 54.2558 103.958C54.0598 103.854 53.8479 103.801 53.6201 103.801C53.3694 103.801 53.1438 103.858 52.9433 103.972C52.7473 104.082 52.581 104.234 52.4443 104.43C52.3121 104.622 52.2096 104.847 52.1367 105.107C52.0683 105.362 52.0341 105.636 52.0341 105.927C52.0341 106.201 52.066 106.465 52.1298 106.72C52.1982 106.971 52.2984 107.194 52.4306 107.39C52.5628 107.586 52.7291 107.741 52.9296 107.855C53.1301 107.969 53.3648 108.026 53.6337 108.026C53.8889 108.026 54.1236 107.978 54.3378 107.882C54.552 107.782 54.7389 107.648 54.8984 107.479C55.0579 107.31 55.1832 107.121 55.2744 106.912C55.3655 106.702 55.4156 106.488 55.4247 106.269L56.0537 106.46C56.0537 106.807 55.9807 107.149 55.8349 107.486C55.6936 107.819 55.4954 108.124 55.2402 108.402C54.9895 108.675 54.6956 108.894 54.3583 109.058C54.0257 109.222 53.6634 109.304 53.2714 109.304C52.7975 109.304 52.3782 109.215 52.0136 109.038C51.6536 108.855 51.3528 108.609 51.1113 108.299C50.8743 107.989 50.6966 107.634 50.5781 107.233C50.4596 106.832 50.4003 106.41 50.4003 105.968C50.4003 105.49 50.4732 105.041 50.6191 104.622C50.7649 104.202 50.9768 103.833 51.2548 103.514C51.5328 103.191 51.8701 102.94 52.2665 102.762C52.6676 102.58 53.121 102.489 53.6269 102.489C54.1647 102.489 54.6363 102.594 55.0419 102.803C55.4475 103.013 55.7893 103.302 56.0673 103.671C56.3453 104.041 56.555 104.469 56.6962 104.957C56.8375 105.444 56.9081 105.968 56.9081 106.529V107.11C56.9081 107.698 56.8557 108.265 56.7509 108.812C56.6461 109.354 56.4752 109.858 56.2382 110.323C56.0058 110.783 55.6982 111.189 55.3154 111.54C54.9371 111.886 54.4723 112.157 53.9208 112.353C53.374 112.544 52.7314 112.64 51.9931 112.64H51.8427V111.28ZM63.2516 102.591V112.579H61.6042V104.546L59.1637 105.374V104.013L63.0534 102.591H63.2516ZM73.4779 106.768V108.395C73.4779 109.174 73.4004 109.84 73.2455 110.391C73.0951 110.938 72.8763 111.382 72.5892 111.724C72.3021 112.066 71.9581 112.317 71.557 112.476C71.1605 112.636 70.7162 112.715 70.224 112.715C69.8321 112.715 69.4675 112.665 69.1303 112.565C68.7976 112.465 68.4968 112.307 68.2279 112.093C67.959 111.879 67.7289 111.603 67.5375 111.266C67.3506 110.924 67.2048 110.516 67.1 110.042C66.9997 109.569 66.9496 109.019 66.9496 108.395V106.768C66.9496 105.984 67.0271 105.323 67.182 104.786C67.337 104.243 67.558 103.804 67.8451 103.466C68.1322 103.125 68.474 102.876 68.8705 102.721C69.2715 102.566 69.7181 102.489 70.2103 102.489C70.6068 102.489 70.9714 102.539 71.3041 102.639C71.6413 102.735 71.9421 102.888 72.2064 103.097C72.4753 103.307 72.7032 103.58 72.89 103.917C73.0814 104.25 73.2273 104.653 73.3275 105.127C73.4278 105.597 73.4779 106.144 73.4779 106.768ZM71.8304 108.627V106.522C71.8304 106.125 71.8077 105.777 71.7621 105.476C71.7165 105.171 71.6482 104.913 71.557 104.704C71.4704 104.489 71.361 104.316 71.2289 104.184C71.0967 104.047 70.9463 103.949 70.7777 103.89C70.6091 103.826 70.42 103.794 70.2103 103.794C69.9551 103.794 69.7273 103.845 69.5267 103.945C69.3262 104.041 69.1576 104.195 69.0209 104.41C68.8842 104.624 68.7793 104.906 68.7064 105.257C68.6381 105.604 68.6039 106.025 68.6039 106.522V108.627C68.6039 109.028 68.6267 109.382 68.6722 109.687C68.7178 109.992 68.7862 110.254 68.8773 110.473C68.9685 110.687 69.0778 110.865 69.2054 111.006C69.3376 111.143 69.488 111.243 69.6566 111.307C69.8298 111.371 70.0189 111.403 70.224 111.403C70.4838 111.403 70.7139 111.353 70.9144 111.252C71.115 111.152 71.2836 110.993 71.4203 110.774C71.557 110.551 71.6595 110.261 71.7279 109.906C71.7963 109.55 71.8304 109.124 71.8304 108.627ZM80.2042 102.564H80.4093V103.911H80.2931C79.7052 103.911 79.197 104.002 78.7687 104.184C78.3448 104.366 77.9962 104.617 77.7228 104.936C77.4493 105.255 77.2442 105.629 77.1075 106.057C76.9754 106.481 76.9093 106.932 76.9093 107.411V108.976C76.9093 109.373 76.9526 109.723 77.0392 110.029C77.1258 110.33 77.2465 110.583 77.4015 110.788C77.561 110.988 77.7433 111.141 77.9483 111.246C78.1534 111.35 78.3744 111.403 78.6114 111.403C78.8575 111.403 79.0808 111.353 79.2813 111.252C79.4819 111.148 79.6528 111.004 79.794 110.822C79.9353 110.639 80.0424 110.423 80.1153 110.172C80.1883 109.922 80.2247 109.648 80.2247 109.352C80.2247 109.069 80.1883 108.805 80.1153 108.559C80.047 108.308 79.9444 108.09 79.8077 107.903C79.671 107.711 79.5001 107.563 79.295 107.458C79.0945 107.349 78.8621 107.294 78.5978 107.294C78.2696 107.294 77.9711 107.372 77.7022 107.527C77.4379 107.682 77.2237 107.885 77.0597 108.135C76.9002 108.381 76.8136 108.643 76.7999 108.921L76.171 108.716C76.2075 108.292 76.3009 107.912 76.4513 107.575C76.6062 107.237 76.809 106.95 77.0597 106.713C77.3103 106.476 77.5997 106.296 77.9278 106.173C78.2605 106.046 78.6251 105.982 79.0216 105.982C79.5047 105.982 79.9239 106.073 80.2794 106.255C80.6349 106.438 80.9288 106.686 81.1612 107C81.3982 107.31 81.5737 107.666 81.6876 108.067C81.8061 108.463 81.8653 108.878 81.8653 109.311C81.8653 109.79 81.7924 110.236 81.6466 110.651C81.5008 111.061 81.2866 111.421 81.004 111.731C80.726 112.041 80.3865 112.282 79.9855 112.456C79.589 112.629 79.1378 112.715 78.6319 112.715C78.0987 112.715 77.6225 112.613 77.2032 112.408C76.7885 112.203 76.4353 111.92 76.1437 111.56C75.8565 111.2 75.6378 110.785 75.4874 110.316C75.337 109.847 75.2618 109.35 75.2618 108.826V108.142C75.2618 107.386 75.3575 106.672 75.5489 106.002C75.7403 105.328 76.0343 104.733 76.4308 104.218C76.8318 103.703 77.3445 103.3 77.9688 103.008C78.5932 102.712 79.3383 102.564 80.2042 102.564ZM85.1053 110.993L85.0985 112.168C85.0985 112.633 84.9822 113.112 84.7498 113.604C84.5174 114.096 84.2098 114.502 83.827 114.821L82.9451 114.308C83.0727 114.103 83.189 113.896 83.2938 113.686C83.3986 113.476 83.4829 113.253 83.5467 113.016C83.6105 112.779 83.6424 112.517 83.6424 112.23V110.993H85.1053ZM91.8521 102.564H92.0572V103.911H91.941C91.3531 103.911 90.8449 104.002 90.4165 104.184C89.9927 104.366 89.6441 104.617 89.3706 104.936C89.0972 105.255 88.8921 105.629 88.7554 106.057C88.6232 106.481 88.5572 106.932 88.5572 107.411V108.976C88.5572 109.373 88.6005 109.723 88.687 110.029C88.7736 110.33 88.8944 110.583 89.0494 110.788C89.2089 110.988 89.3912 111.141 89.5962 111.246C89.8013 111.35 90.0223 111.403 90.2593 111.403C90.5054 111.403 90.7287 111.353 90.9292 111.252C91.1298 111.148 91.3007 111.004 91.4419 110.822C91.5832 110.639 91.6903 110.423 91.7632 110.172C91.8361 109.922 91.8726 109.648 91.8726 109.352C91.8726 109.069 91.8361 108.805 91.7632 108.559C91.6949 108.308 91.5923 108.09 91.4556 107.903C91.3189 107.711 91.148 107.563 90.9429 107.458C90.7424 107.349 90.51 107.294 90.2456 107.294C89.9175 107.294 89.619 107.372 89.3501 107.527C89.0858 107.682 88.8716 107.885 88.7076 108.135C88.5481 108.381 88.4615 108.643 88.4478 108.921L87.8189 108.716C87.8553 108.292 87.9488 107.912 88.0992 107.575C88.2541 107.237 88.4569 106.95 88.7076 106.713C88.9582 106.476 89.2476 106.296 89.5757 106.173C89.9084 106.046 90.273 105.982 90.6695 105.982C91.1525 105.982 91.5718 106.073 91.9273 106.255C92.2828 106.438 92.5767 106.686 92.8091 107C93.0461 107.31 93.2216 107.666 93.3355 108.067C93.454 108.463 93.5132 108.878 93.5132 109.311C93.5132 109.79 93.4403 110.236 93.2945 110.651C93.1486 111.061 92.9344 111.421 92.6519 111.731C92.3739 112.041 92.0344 112.282 91.6333 112.456C91.2369 112.629 90.7857 112.715 90.2798 112.715C89.7466 112.715 89.2704 112.613 88.8511 112.408C88.4364 112.203 88.0832 111.92 87.7915 111.56C87.5044 111.2 87.2857 110.785 87.1353 110.316C86.9849 109.847 86.9097 109.35 86.9097 108.826V108.142C86.9097 107.386 87.0054 106.672 87.1968 106.002C87.3882 105.328 87.6822 104.733 88.0787 104.218C88.4797 103.703 88.9924 103.3 89.6167 103.008C90.2411 102.712 90.9862 102.564 91.8521 102.564ZM101.6 106.768V108.395C101.6 109.174 101.522 109.84 101.367 110.391C101.217 110.938 100.998 111.382 100.711 111.724C100.424 112.066 100.08 112.317 99.679 112.476C99.2825 112.636 98.8381 112.715 98.346 112.715C97.954 112.715 97.5894 112.665 97.2522 112.565C96.9195 112.465 96.6187 112.307 96.3499 112.093C96.081 111.879 95.8508 111.603 95.6594 111.266C95.4726 110.924 95.3268 110.516 95.2219 110.042C95.1217 109.569 95.0715 109.019 95.0715 108.395V106.768C95.0715 105.984 95.149 105.323 95.304 104.786C95.4589 104.243 95.6799 103.804 95.9671 103.466C96.2542 103.125 96.596 102.876 96.9924 102.721C97.3935 102.566 97.8401 102.489 98.3323 102.489C98.7288 102.489 99.0934 102.539 99.426 102.639C99.7633 102.735 100.064 102.888 100.328 103.097C100.597 103.307 100.825 103.58 101.012 103.917C101.203 104.25 101.349 104.653 101.449 105.127C101.55 105.597 101.6 106.144 101.6 106.768ZM99.9524 108.627V106.522C99.9524 106.125 99.9296 105.777 99.884 105.476C99.8385 105.171 99.7701 104.913 99.679 104.704C99.5924 104.489 99.483 104.316 99.3508 104.184C99.2187 104.047 99.0683 103.949 98.8997 103.89C98.731 103.826 98.5419 103.794 98.3323 103.794C98.0771 103.794 97.8492 103.845 97.6487 103.945C97.4482 104.041 97.2796 104.195 97.1428 104.41C97.0061 104.624 96.9013 104.906 96.8284 105.257C96.76 105.604 96.7258 106.025 96.7258 106.522V108.627C96.7258 109.028 96.7486 109.382 96.7942 109.687C96.8398 109.992 96.9081 110.254 96.9993 110.473C97.0904 110.687 97.1998 110.865 97.3274 111.006C97.4596 111.143 97.61 111.243 97.7786 111.307C97.9518 111.371 98.1409 111.403 98.346 111.403C98.6057 111.403 98.8359 111.353 99.0364 111.252C99.2369 111.152 99.4055 110.993 99.5422 110.774C99.679 110.551 99.7815 110.261 99.8499 109.906C99.9182 109.55 99.9524 109.124 99.9524 108.627Z" fill="white"/>
<path d="M22.7356 110.181C22.7356 109.785 22.6088 109.472 22.3551 109.241C22.1069 109.004 21.6823 108.787 21.0812 108.59C20.4802 108.392 19.9618 108.197 19.5262 108.004C19.0905 107.807 18.7155 107.582 18.4012 107.332C18.0924 107.076 17.8497 106.777 17.6733 106.435C17.5023 106.093 17.4169 105.686 17.4169 105.213C17.4169 104.399 17.7146 103.731 18.3102 103.211C18.9058 102.69 19.6971 102.386 20.6842 102.299V100.752H22.0077V102.321C22.9838 102.442 23.7475 102.798 24.299 103.391C24.8504 103.979 25.1261 104.743 25.1261 105.683H22.7356C22.7356 105.105 22.5977 104.673 22.322 104.389C22.0518 104.1 21.6878 103.955 21.2301 103.955C20.778 103.955 20.4278 104.069 20.1796 104.295C19.9315 104.517 19.8074 104.825 19.8074 105.221C19.8074 105.587 19.9287 105.881 20.1714 106.103C20.414 106.324 20.8634 106.551 21.5197 106.782C22.1814 107.014 22.7246 107.233 23.1492 107.44C23.5738 107.643 23.9322 107.874 24.2245 108.134C24.5168 108.39 24.7401 108.684 24.8945 109.016C25.0489 109.344 25.1261 109.727 25.1261 110.166C25.1261 110.986 24.8339 111.651 24.2493 112.162C23.6648 112.673 22.8597 112.974 21.834 113.065V114.504H20.5188V113.073C19.3883 112.967 18.5115 112.617 17.8884 112.024C17.2707 111.427 16.9619 110.634 16.9619 109.645H19.3525C19.3525 110.219 19.5069 110.66 19.8157 110.969C20.13 111.272 20.5794 111.424 21.164 111.424C21.6492 111.424 22.0325 111.313 22.3137 111.092C22.595 110.865 22.7356 110.561 22.7356 110.181Z" fill="#FEFEFE"/>
<path d="M153.918 172.686C153.918 192.627 138.413 208.174 120.035 208.174C101.658 208.174 86.1526 192.627 86.1526 172.686C86.1526 152.745 101.658 137.198 120.035 137.198C138.413 137.198 153.918 152.745 153.918 172.686Z" stroke="url(#paint0_linear_2080_522)" stroke-width="20"/>
</g>
<defs>
<linearGradient id="paint0_linear_2080_522" x1="115.098" y1="108.435" x2="125.695" y2="188.511" gradientUnits="userSpaceOnUse">
<stop stop-color="#FFE6C8"/>
<stop offset="1" stop-color="#FFDEB8" stop-opacity="0"/>
</linearGradient>
</defs>
</svg>
